<svg width="44" height="43" fill="none" xmlns="http://www.w3.org/2000/svg">
  <path fill-rule="evenodd" clip-rule="evenodd" d="M21.717 0C9.725 0 0 9.724 0 21.72c0 9.596 6.223 17.736 14.853 20.608 1.087.2 1.483-.47 1.483-1.047 0-.516-.019-1.881-.03-3.693-6.04 1.312-7.315-2.912-7.315-2.912-.988-2.51-2.412-3.177-2.412-3.177-1.972-1.347.149-1.32.149-1.32 2.18.153 3.327 2.238 3.327 2.238 1.937 3.319 5.084 2.36 6.321 1.804.197-1.402.759-2.36 1.379-2.902-4.823-.548-9.894-2.412-9.894-10.735 0-2.37.847-4.31 2.236-5.828-.224-.55-.969-2.759.214-5.748 0 0 1.822-.584 5.972 2.227 1.732-.483 3.59-.723 5.437-.732 1.845.009 3.703.249 5.437.732 4.147-2.811 5.967-2.227 5.967-2.227 1.185 2.99.44 5.199.217 5.748 1.392 1.517 2.232 3.457 2.232 5.828 0 8.344-5.078 10.18-9.916 10.717.779.671 1.474 1.996 1.474 4.022 0 2.904-.027 5.246-.027 5.958 0 .582.392 1.258 1.493 1.046C37.221 39.448 43.44 31.313 43.44 21.72 43.439 9.724 33.713 0 21.717 0" fill="#fff"/>
</svg>
