<svg id="Capa_1" enable-background="new 0 0 512 512" height="512" viewBox="0 0 512 512" width="512" xmlns="http://www.w3.org/2000/svg"><g><g><path d="m381.607 482.458h-6.693v-13.48c0-15.543-12.6-28.143-28.143-28.143h-173.72c-15.531 0-28.121 12.59-28.121 28.121v12.088h-13.834c-8.548 0-15.478 6.93-15.478 15.478 0 8.548 6.93 15.478 15.478 15.478h250.511c8.158 0 14.771-6.613 14.771-14.771 0-8.158-6.613-14.771-14.771-14.771z" fill="#ffd597"/><path d="m396.347 498.243c-.524 7.818-7.298 13.757-15.134 13.757h-29.769c8.159 0 14.762-6.614 14.762-14.773 0-4.079-1.648-7.768-4.327-10.446-2.668-2.679-6.356-4.327-10.436-4.327-3.698 0-6.696-2.998-6.696-6.696v-6.779c0-15.545-12.599-28.145-28.145-28.145h30.164c15.544 0 28.145 12.601 28.145 28.144v13.475h6.696c4.08 0 7.778 1.648 10.446 4.327 2.889 2.9 4.595 6.982 4.294 11.463z" fill="#fcc16d"/><g><path d="m337.116 149.727v336.024h-151.683v-263.232c0-7.757 3.523-15.082 9.581-19.924l66.096-52.869h76.006z" fill="#fcb44d"/><path d="m337.116 210.796h-.001v-61.067h-26.295v61.067h-59.713v27.001c0 8.303 6.377 15.442 14.67 15.834 8.849.412 16.153-6.634 16.153-15.391v66.745c0 8.293 6.377 15.432 14.66 15.824.061.003.122.005.183.007 7.788.273 14.048 6.458 14.048 14.251v150.688h26.295v-204.031s.001-.001.001-.001v-70.927z" fill="#fb9927"/><g><g><path d="m261.274 157.453c-4.268 0-7.726-3.459-7.726-7.726v-41.118c0-4.267 3.459-7.726 7.726-7.726s7.726 3.459 7.726 7.726v41.118c0 4.266-3.459 7.726-7.726 7.726z" fill="#fee7c9"/></g><path d="m270.389 107.13c-2.546 6.013-9.991 8.233-15.346 4.497-9.481-6.615-20.729-18.559-20.729-38.001 0-30.176 27.094-42.289 32.628-69.451.84-4.121 5.925-5.604 8.824-2.556 8.851 9.307 22.03 26.701 22.03 47.764 0 26.11-20.252 40.849-27.407 57.747z" fill="#fcb44d"/><path d="m297.799 49.381c0 26.107-20.258 40.846-27.41 57.744-2.543 6.015-9.994 8.237-15.348 4.506-9.478-6.615-20.723-18.562-20.723-38.004 0-2.563.196-5.002.558-7.328 5.664 9.767 14.209 16.045 20.433 19.265 9.391 4.859 34.138-35.285 36.929-60.173 3.298 7.154 5.561 15.257 5.561 23.99z" fill="#fc7d4b"/></g><g><g><path d="m333.175 133.667h-10.038c-3.659 0-6.869 1.894-8.718 4.753-.92 1.423-2.545 2.231-4.24 2.231h-48.736c-5.708 0-10.335 4.627-10.335 10.335v58.793c0 8.297 6.376 15.437 14.665 15.828 8.849.417 16.155-6.635 16.155-15.392v66.745c0 8.298 6.377 15.437 14.665 15.827 8.849.417 16.154-6.635 16.154-15.392v-36.14c0 8.757 7.305 15.809 16.154 15.392 8.288-.39 14.665-7.53 14.665-15.827v-96.763c0-5.738-4.652-10.39-10.391-10.39z" fill="#ffd597"/><path d="m343.564 144.061v96.765c0 8.293-6.377 15.432-14.659 15.824-4.739.216-9.035-1.7-12.002-4.873 2.678-2.885 4.296-6.768 4.296-10.951v-96.765c0-3.431-1.669-6.48-4.224-8.365 1.72-1.277 3.853-2.029 6.16-2.029h10.044c5.739-.001 10.385 4.655 10.385 10.394z" fill="#fcc16d"/></g><g><path d="m312.742 226.156v51.241c0 8.52-6.923 15.432-15.453 15.411v-66.653c0-4.265 3.461-7.726 7.726-7.726 4.276 0 7.727 3.462 7.727 7.727z" fill="#fcc16d"/></g><g><path d="m281.93 187.987v22.231c0 8.53-6.923 15.432-15.453 15.412v-37.643c0-4.265 3.462-7.726 7.726-7.726 4.265 0 7.727 3.462 7.727 7.726z" fill="#fcc16d"/></g></g><g><path d="m312.742 139.981v25.26c0 4.265-3.451 7.726-7.726 7.726-4.265 0-7.726-3.461-7.726-7.726v-24.59h12.888c.906 0 1.802-.227 2.564-.67z" fill="#fcc16d"/></g><g><path d="m305.021 211.996c-4.268 0-7.726-3.459-7.726-7.726v-5.029c0-4.267 3.459-7.726 7.726-7.726 4.268 0 7.726 3.459 7.726 7.726v5.029c0 4.267-3.459 7.726-7.726 7.726z" fill="#fcc16d"/></g></g><g><path d="m172.003 464.998h41.356c2.598 0 5.101.979 7.01 2.741l16.76 15.471c1.909 1.762 4.412 2.741 7.01 2.741h11.941c3.626 0 6.986-1.9 8.856-5.007l15.219-25.292c1.869-3.107 5.23-5.007 8.856-5.007h24.796c2.741 0 5.37 1.089 7.308 3.027l11.877 11.877h13.033v37.21h-174.022z" fill="#ffd597"/><g><path d="m256.08 493.677h-11.94c-4.555 0-8.906-1.702-12.253-4.791l-16.759-15.469c-.484-.447-1.112-.692-1.77-.692h-41.356c-4.268 0-7.726-3.459-7.726-7.726s3.459-7.726 7.726-7.726h41.356c4.555 0 8.906 1.702 12.253 4.791l16.759 15.469c.484.447 1.112.692 1.77.692h11.941c.909 0 1.767-.485 2.236-1.265l15.217-25.291c3.247-5.397 9.178-8.749 15.477-8.749h24.796c4.824 0 9.36 1.878 12.772 5.289l9.614 9.615h9.832c4.268 0 7.726 3.459 7.726 7.726s-3.459 7.726-7.726 7.726h-13.032c-2.049 0-4.014-.814-5.464-2.263l-11.876-11.877c-.492-.492-1.148-.764-1.845-.764h-24.796c-.91 0-1.767.484-2.235 1.264l-15.218 25.292c-3.251 5.396-9.181 8.749-15.479 8.749z" fill="#fcc16d"/></g></g></g><g><path d="m281.713 421.718c-11.946 0-21.664-9.718-21.664-21.663v-80.912c0-4.267 3.459-7.726 7.726-7.726s7.726 3.459 7.726 7.726v80.912c0 3.425 2.787 6.211 6.211 6.211 3.425 0 6.21-2.786 6.21-6.211 0-4.267 3.459-7.726 7.726-7.726s7.726 3.459 7.726 7.726c.002 11.945-9.716 21.663-21.661 21.663z" fill="#ffd597"/></g><g><path d="m226.589 313.583c-4.268 0-7.726-3.459-7.726-7.726v-50.47c0-4.267 3.459-7.726 7.726-7.726s7.726 3.459 7.726 7.726v50.47c0 4.266-3.459 7.726-7.726 7.726z" fill="#ffd597"/></g></g></svg>