<?xml version="1.0" encoding="iso-8859-1"?>
<!-- Generator: Adobe Illustrator 19.0.0, SVG Export Plug-In . SVG Version: 6.00 Build 0)  -->
<svg version="1.1" id="Capa_1" xmlns="http://www.w3.org/2000/svg" xmlns:xlink="http://www.w3.org/1999/xlink" x="0px" y="0px"
	 viewBox="0 0 512.135 512.135" style="enable-background:new 0 0 512.135 512.135;" xml:space="preserve">
<path style="fill:#FFC107;" d="M507.991,87.534c-2.594-2.067-6.021-2.765-9.216-1.877l-490.667,128
	c-4.731,1.232-8.019,5.522-7.979,10.411v85.333c0,5.891,4.776,10.667,10.667,10.667c17.673,0,32,14.327,32,32
	c0,17.673-14.327,32-32,32c-5.891,0-10.667,4.776-10.667,10.667v106.667c0,5.891,4.776,10.667,10.667,10.667
	c0.908,0.003,1.813-0.119,2.688-0.363l490.667-128c4.692-1.222,7.97-5.455,7.979-10.304V96.068
	C512.16,92.732,510.629,89.575,507.991,87.534z"/>
<g>
	<circle style="fill:#FFD54F;" cx="138.796" cy="288.068" r="53.333"/>
	<circle style="fill:#FFD54F;" cx="245.463" cy="352.068" r="32"/>
	<circle style="fill:#FFD54F;" cx="288.13" cy="224.068" r="32"/>
	<circle style="fill:#FFD54F;" cx="384.13" cy="298.734" r="42.667"/>
</g>
<path style="fill:#FFA000;" d="M511.724,93.188c-1.045-3.797-28.309-93.12-223.595-93.12c-2.308,0-4.554,0.749-6.4,2.133
	C228.951,41.902,6.53,213.892,4.268,215.534c-4.713,3.534-5.669,10.22-2.135,14.933c2.042,2.723,5.26,4.308,8.663,4.267
	c0.908,0.003,1.813-0.119,2.688-0.363l490.667-128c5.699-1.492,9.109-7.321,7.618-13.02
	C511.754,93.297,511.74,93.242,511.724,93.188L511.724,93.188z"/>
<path d="M10.796,234.734c-5.891,0.006-10.672-4.764-10.678-10.655c-0.005-4.864,3.281-9.116,7.99-10.337l490.667-128
	c5.703-1.485,11.529,1.935,13.013,7.637c1.485,5.703-1.935,11.529-7.637,13.013l-490.667,128
	C12.606,234.618,11.703,234.732,10.796,234.734z"/>
<path d="M10.796,512.068c-5.891,0-10.667-4.776-10.667-10.667V394.734c0-5.891,4.776-10.667,10.667-10.667c17.673,0,32-14.327,32-32
	c0-17.673-14.327-32-32-32c-5.891,0-10.667-4.776-10.667-10.667v-85.333c-0.03-3.335,1.501-6.492,4.139-8.533
	C6.53,213.892,228.951,41.796,281.73,2.201c1.846-1.385,4.092-2.133,6.4-2.133c195.157,0,222.549,89.323,223.595,93.12
	c0.27,0.936,0.406,1.906,0.405,2.88v277.333c0.001,4.857-3.279,9.101-7.979,10.325l-490.667,128
	C12.606,511.954,11.703,512.068,10.796,512.068z M21.463,404.334v83.2l469.333-122.432v-267.2
	c-3.755-9.237-36.459-75.541-199.125-76.501C238.743,61.273,51.756,205.87,21.463,229.294v70.507
	c28.866,5.861,47.515,34.014,41.654,62.88C58.855,383.669,42.451,400.072,21.463,404.334z M245.463,384.068
	c-17.673,0-32-14.327-32-32c0-17.673,14.327-32,32-32s32,14.327,32,32C277.463,369.741,263.136,384.068,245.463,384.068z
	 M245.463,341.401c-5.891,0-10.667,4.776-10.667,10.667c0,5.891,4.776,10.667,10.667,10.667s10.667-4.776,10.667-10.667
	C256.13,346.176,251.354,341.401,245.463,341.401z M384.13,341.401c-23.564,0-42.667-19.103-42.667-42.667
	s19.102-42.667,42.667-42.667s42.667,19.103,42.667,42.667S407.694,341.401,384.13,341.401z M384.13,277.401
	c-11.782,0-21.333,9.551-21.333,21.333s9.551,21.333,21.333,21.333s21.333-9.551,21.333-21.333S395.912,277.401,384.13,277.401z
	 M138.796,341.401c-29.455,0-53.333-23.878-53.333-53.333c0-29.455,23.878-53.333,53.333-53.333s53.333,23.878,53.333,53.333
	C192.13,317.523,168.252,341.401,138.796,341.401z M138.796,256.068c-17.673,0-32,14.327-32,32c0,17.673,14.327,32,32,32
	s32-14.327,32-32C170.796,270.394,156.469,256.068,138.796,256.068z M288.13,256.068c-17.673,0-32-14.327-32-32s14.327-32,32-32
	s32,14.327,32,32S305.803,256.068,288.13,256.068z M288.13,213.401c-5.891,0-10.667,4.776-10.667,10.667s4.776,10.667,10.667,10.667
	s10.667-4.776,10.667-10.667S294.021,213.401,288.13,213.401z"/>
<g>
</g>
<g>
</g>
<g>
</g>
<g>
</g>
<g>
</g>
<g>
</g>
<g>
</g>
<g>
</g>
<g>
</g>
<g>
</g>
<g>
</g>
<g>
</g>
<g>
</g>
<g>
</g>
<g>
</g>
</svg>
