<svg id="Capa_1" enable-background="new 0 0 512 512" height="512" viewBox="0 0 512 512" width="512" xmlns="http://www.w3.org/2000/svg"><g><g><path d="m289.202 512c-6.082 0-12.044-2.966-15.63-8.43-63.312-96.449-33.248-267.262-31.937-274.486 1.841-10.149 11.566-16.884 21.71-15.041 10.149 1.842 16.883 11.562 15.042 21.71-.375 2.09-28.606 163.509 26.411 247.32 5.66 8.623 3.258 20.201-5.364 25.861-3.159 2.074-6.715 3.066-10.232 3.066z" fill="#c4e6d5"/></g><g><path d="m299.434 508.936c-3.16 2.071-6.715 3.064-10.227 3.064-3.406 0-6.768-.929-9.704-2.712.192-.107.374-.235.566-.352 8.626-5.658 11.028-17.241 5.37-25.867-55.023-83.804-26.785-245.221-26.412-247.314 1.42-7.836-2.274-15.405-8.69-19.302 3.769-2.285 8.348-3.256 13.014-2.413 10.142 1.847 16.878 11.562 15.042 21.714-.384 2.093-28.611 163.51 26.401 247.314 5.668 8.627 3.266 20.21-5.36 25.868z" fill="#aedec8"/></g><path d="m175.274 352.022c-12.827 1.257-25.768-3.372-34.881-12.484-9.673-9.673-13.808-22.781-12.42-35.398-12.616 1.388-25.725-2.747-35.398-12.42-9.113-9.112-13.741-22.054-12.484-34.88 2.626-26.803 34.499-49.237 66.637-63.083 0 0 54.133-24.755 110.411-18.782 5.973 56.278-18.782 110.411-18.782 110.411-13.846 32.136-36.28 64.009-63.083 66.636z" fill="#7acaa6"/><path d="m258.065 194.03c-53.141-2.891-101.998 19.452-101.998 19.452-32.13 13.845-64.003 36.281-66.636 63.084-.403 4.14-.196 8.291.568 12.328-7.392-8.859-11.037-20.495-9.912-32.058 2.633-26.803 34.505-49.228 66.636-63.084 0 0 54.143-24.748 110.412-18.781.682 6.411.961 12.782.93 19.059z" fill="#57be92"/><path d="m431.908 95.388c1.257-12.827-3.372-25.768-12.484-34.881-9.673-9.673-22.781-13.808-35.398-12.42 1.388-12.616-2.747-25.725-12.42-35.398-9.112-9.113-22.054-13.741-34.88-12.484-26.803 2.626-49.237 34.499-63.083 66.637 0 0-24.755 54.133-18.782 110.411 56.278 5.973 110.411-18.782 110.411-18.782 32.137-13.847 64.01-36.281 66.636-63.083z" fill="#7acaa6"/><path d="m431.912 95.388c-2.633 26.803-34.505 49.239-66.635 63.084 0 0-54.143 24.759-110.412 18.781-.434-4.058-.702-8.115-.836-12.132 49.982.465 94.089-19.699 94.089-19.699 32.141-13.845 64.013-36.281 66.636-63.084 1.094-11.161-2.261-22.394-9.148-31.139 5.018 2.116 9.726 5.224 13.814 9.313 9.116 9.106 13.741 22.053 12.492 34.876z" fill="#57be92"/><path d="m175.274.205c-12.827-1.257-25.768 3.372-34.881 12.484-9.673 9.673-13.808 22.781-12.42 35.398-12.616-1.388-25.725 2.747-35.398 12.42-9.113 9.112-13.741 22.054-12.484 34.881 2.626 26.803 34.499 49.237 66.637 63.083 0 0 54.133 24.755 110.411 18.782 5.973-56.278-18.782-110.411-18.782-110.411-13.846-32.138-36.28-64.011-63.083-66.637z" fill="#7acaa6"/><path d="m257.136 177.252c-5.864.619-11.708.909-17.469.929 2.715-52.944-19.473-101.481-19.473-101.481-13.845-32.13-36.281-64.003-63.084-66.636-5.152-.506-10.335-.062-15.27 1.249 9.013-8.198 21.269-12.307 33.431-11.109 26.803 2.623 49.238 34.495 63.084 66.636 0 0 24.759 54.133 18.781 110.412z" fill="#57be92"/><path d="m431.908 256.839c1.257 12.827-3.372 25.768-12.484 34.881-9.673 9.673-22.781 13.807-35.398 12.42 1.388 12.616-2.747 25.725-12.42 35.398-9.112 9.113-22.054 13.741-34.88 12.484-26.803-2.626-49.237-34.499-63.083-66.637 0 0-24.755-54.133-18.782-110.411 56.278-5.973 110.411 18.782 110.411 18.782 32.137 13.846 64.01 36.28 66.636 63.083z" fill="#7acaa6"/><path d="m377.821 331.7c-1.724 2.788-3.799 5.42-6.215 7.836-9.117 9.117-22.054 13.742-34.877 12.483-26.803-2.622-49.238-34.495-63.084-66.636 0 0-24.759-54.132-18.781-110.412 4.853-.516 9.695-.805 14.496-.898-1.156 50.963 19.669 96.495 19.669 96.495 13.845 32.141 36.281 64.013 63.084 66.636 8.961.876 17.975-1.116 25.708-5.504z" fill="#57be92"/><path d="m266.951 176.113 43.518-43.518c3.024-3.024 3.024-7.927 0-10.951s-7.927-3.024-10.951 0l-43.518 43.519-43.518-43.518c-3.024-3.024-7.927-3.024-10.951 0s-3.024 7.927 0 10.951l43.518 43.518-43.518 43.518c-3.024 3.024-3.024 7.927 0 10.951 1.512 1.512 3.494 2.268 5.475 2.268s3.964-.756 5.475-2.268l43.519-43.519 43.518 43.518c1.512 1.512 3.494 2.268 5.475 2.268 1.982 0 3.964-.756 5.475-2.268 3.024-3.024 3.024-7.927 0-10.951z" fill="#43a87a"/></g></svg>