<?xml version="1.0" encoding="iso-8859-1"?>
<!-- Generator: Adobe Illustrator 19.0.0, SVG Export Plug-In . SVG Version: 6.00 Build 0)  -->
<svg version="1.1" id="Capa_1" xmlns="http://www.w3.org/2000/svg" xmlns:xlink="http://www.w3.org/1999/xlink" x="0px" y="0px"
	 viewBox="0 0 511.998 511.998" style="enable-background:new 0 0 511.998 511.998;" xml:space="preserve">
<path style="fill:#7E9EDC;" d="M243.952,402.986l-9.614,14.654c-15.203,23.173-34.82,43.125-57.732,58.718l0,0
	c-7.74,5.268-18.025,4.811-25.268-1.123l0,0c-23.519-19.267-34.646-49.836-29.013-79.713l0,0
	c1.735-9.201,9.319-16.162,18.635-17.102l0,0c27.575-2.783,55.428-0.109,81.969,7.871l16.784,5.046
	C244.664,392.826,246.788,398.662,243.952,402.986z"/>
<g>
	<path style="opacity:0.15;fill:#003A63;enable-background:new    ;" d="M243.952,402.986l-9.614,14.654
		c-15.203,23.173-34.82,43.125-57.732,58.718l0,0c-7.74,5.268-18.025,4.811-25.268-1.123l0,0
		c-23.519-19.267-34.646-49.836-29.013-79.713l0,0c1.735-9.201,9.319-16.162,18.635-17.102l0,0
		c27.575-2.783,55.428-0.109,81.969,7.871l16.784,5.046C244.664,392.826,246.788,398.662,243.952,402.986z"/>
	<g style="opacity:0.15;">
		<path style="fill:#003A63;" d="M160.681,421.488c-2.615,0-5.155-1.37-6.535-3.809c-2.039-3.605-0.769-8.182,2.836-10.221
			c9.523-5.387,28.919-11.718,52.244-11.832c0.013,0,0.025,0,0.038,0c4.125,0,7.479,3.333,7.499,7.463
			c0.021,4.142-3.321,7.517-7.463,7.537c-19.13,0.094-36.352,5.034-44.934,9.888C163.2,421.175,161.932,421.488,160.681,421.488z"/>
		<path style="fill:#003A63;" d="M174.083,449.371c-2.835,0-5.549-1.616-6.814-4.359c-1.736-3.761-0.095-8.217,3.667-9.953
			c3.829-1.768,22.623-14,30.232-21.668c2.917-2.94,7.666-2.957,10.606-0.04c2.939,2.918,2.958,7.667,0.04,10.607
			c-8.445,8.51-28.639,21.972-34.594,24.72C176.203,449.149,175.135,449.371,174.083,449.371z"/>
	</g>
</g>
<path style="fill:#7E9EDC;" d="M268.048,402.986l9.614,14.654c15.203,23.173,34.82,43.125,57.732,58.718l0,0
	c7.74,5.268,18.025,4.811,25.268-1.123l0,0c23.519-19.267,34.645-49.836,29.013-79.713l0,0c-1.734-9.201-9.319-16.162-18.635-17.102
	l0,0c-27.575-2.783-55.427-0.109-81.969,7.871l-16.784,5.046C267.336,392.826,265.212,398.662,268.048,402.986z"/>
<g>
	<path style="opacity:0.15;fill:#003A63;enable-background:new    ;" d="M268.048,402.986l9.614,14.654
		c15.203,23.173,34.82,43.125,57.732,58.718l0,0c7.74,5.268,18.025,4.811,25.268-1.123l0,0
		c23.519-19.267,34.645-49.836,29.013-79.713l0,0c-1.734-9.201-9.319-16.162-18.635-17.102l0,0
		c-27.575-2.783-55.427-0.109-81.969,7.871l-16.784,5.046C267.336,392.826,265.212,398.662,268.048,402.986z"/>
	<g style="opacity:0.15;">
		<path style="fill:#003A63;" d="M351.319,421.488c-1.251,0-2.52-0.313-3.686-0.974c-8.582-4.854-25.804-9.794-44.934-9.888
			c-4.142-0.021-7.483-3.395-7.463-7.537c0.021-4.129,3.374-7.463,7.499-7.463c0.013,0,0.025,0,0.038,0
			c23.325,0.115,42.722,6.446,52.244,11.832c3.605,2.039,4.875,6.615,2.836,10.221C356.475,420.118,353.935,421.488,351.319,421.488
			z"/>
		<path style="fill:#003A63;" d="M337.917,449.371c-1.052,0-2.12-0.223-3.138-0.692c-5.955-2.749-26.148-16.211-34.594-24.72
			c-2.918-2.94-2.899-7.689,0.04-10.607c2.94-2.917,7.689-2.9,10.606,0.04c7.609,7.668,26.403,19.9,30.233,21.668
			c3.762,1.736,5.403,6.192,3.667,9.953C343.466,447.756,340.752,449.371,337.917,449.371z"/>
	</g>
</g>
<circle style="fill:#F3BB62;" cx="66.02" cy="230.128" r="58.52"/>
<circle style="fill:#7E9EDC;" cx="256" cy="409.018" r="63.19"/>
<circle style="fill:#F3BB62;" cx="445.98" cy="230.128" r="58.52"/>
<circle style="fill:#FFF4D1;" cx="256" cy="222.258" r="186.76"/>
<g>
	<ellipse style="fill:#F895C6;" cx="149.46" cy="230.128" rx="37.968" ry="30.24"/>
	<ellipse style="fill:#F895C6;" cx="362.54" cy="230.128" rx="37.968" ry="30.24"/>
</g>
<circle style="fill:#D76976;" cx="256" cy="222.258" r="39.788"/>
<path style="opacity:0.2;fill:#893529;enable-background:new    ;" d="M291.494,240.234c-56.562,14.617-59.22-35.882-45.591-56.465
	c-17.084,4.469-29.692,20.007-29.692,38.492c0,21.974,17.814,39.788,39.788,39.788C271.505,262.049,284.928,253.175,291.494,240.234
	z"/>
<path style="opacity:0.15;fill:#AC6A22;enable-background:new    ;" d="M362.612,375.608
	c-262.311,8.583-250.511-222.796-200.335-314.915c-55.632,32.341-93.039,92.583-93.039,161.568
	c0,103.146,83.616,186.762,186.762,186.762C295.636,409.023,332.38,396.665,362.612,375.608z"/>
<g>
	<path style="fill:#7E9EDC;" d="M471.881,99.838c3.507-7.13,5.265-15.272,4.704-23.877c-1.523-23.358-20.455-42.306-43.813-43.837
		c-20.346-1.334-38.138,10.267-45.985,27.379c-1.312,2.861-3.974,4.878-7.079,5.393c-23.467,3.892-41.074,25.133-39.19,50.104
		c1.746,23.147,20.641,41.825,43.805,43.332c1.855,0.121,3.688,0.134,5.495,0.045c4.097-0.201,7.825,2.237,9.383,6.031
		c7.511,18.286,26.189,30.803,47.554,29.042c22.745-1.874,41.113-20.286,42.94-43.035c1.245-15.507-5.034-29.588-15.572-39.002
		C470.845,108.485,469.942,103.781,471.881,99.838z"/>
	<path style="fill:#7E9EDC;" d="M40.119,99.838c-3.507-7.13-5.265-15.272-4.704-23.877c1.523-23.358,20.455-42.306,43.813-43.837
		c20.346-1.334,38.138,10.267,45.985,27.379c1.312,2.861,3.975,4.878,7.079,5.393c23.467,3.892,41.074,25.133,39.19,50.104
		c-1.746,23.147-20.641,41.825-43.805,43.332c-1.855,0.121-3.688,0.134-5.495,0.045c-4.097-0.201-7.825,2.237-9.383,6.031
		c-7.511,18.286-26.189,30.803-47.554,29.042c-22.745-1.874-41.113-20.286-42.94-43.035c-1.245-15.507,5.034-29.588,15.572-39.002
		C41.154,108.485,42.058,103.781,40.119,99.838z"/>
</g>
<g>
	<path style="opacity:0.15;fill:#003A63;enable-background:new    ;" d="M112.82,164.426c1.553-3.777,5.311-6.25,9.391-6.049
		c1.807,0.089,3.641,0.076,5.495-0.045c14.03-0.913,26.485-8.131,34.522-18.82c-46.783,11.842-72.106-8.502-80.5-28.117
		c-1.759-4.11-5.154-7.302-9.438-8.582c-16.072-4.804-22.354-38.256-18.738-60.83C43.258,50.024,36.34,62.228,35.444,75.962
		c-0.564,8.655,1.218,16.844,4.767,24.004c1.93,3.895,0.938,8.552-2.304,11.447c-10.456,9.34-16.718,23.273-15.6,38.636
		c1.676,23.025,19.446,41.208,42.432,43.354C86.318,195.418,105.24,182.855,112.82,164.426z"/>
	<path style="opacity:0.15;fill:#003A63;enable-background:new    ;" d="M446.783,193.45c16.466-1.357,30.632-11.383,37.895-25.445
		c-30.681,6.67-61.462-22.069-60.685-51.285c0.129-4.853-2.509-9.397-6.943-11.372c-23.042-10.263-23.91-45.305-12.675-65.977
		c-7.612,4.851-13.74,11.823-17.541,20.092c-1.318,2.868-3.985,4.916-7.098,5.432c-23.252,3.856-40.75,24.745-39.236,49.418
		c1.443,23.529,20.33,42.488,43.854,44.018c1.854,0.121,3.688,0.134,5.495,0.045c4.071-0.2,7.826,2.237,9.373,6.008
		C406.725,182.683,425.409,195.211,446.783,193.45z"/>
</g>
<path d="M486.968,178.393c5.708-7.863,9.389-17.259,10.202-27.378c1.385-17.238-5.195-33.711-18.051-45.195
	c-0.758-0.677-0.962-1.75-0.509-2.671c4.196-8.53,6.084-18.1,5.459-27.675c-1.24-19.031-12.66-36.29-29.803-45.04
	c-3.692-1.881-8.207-0.42-10.09,3.27c-1.884,3.689-0.42,8.207,3.27,10.09c12.459,6.359,20.756,18.873,21.654,32.656
	c0.454,6.958-0.911,13.901-3.949,20.078c-3.406,6.924-1.771,15.345,3.975,20.479c9.325,8.331,14.098,20.289,13.093,32.808
	c-1.53,19.046-17.041,34.592-36.08,36.161c-17.343,1.431-33.414-8.384-40-24.418c-2.768-6.738-9.476-11.02-16.689-10.671
	c-1.532,0.074-3.094,0.062-4.641-0.039c-19.517-1.27-35.343-16.923-36.814-36.412c-1.185-15.706,6.728-29.939,19.529-37.341
	c0.442-0.194,0.867-0.427,1.269-0.708c3.701-1.961,7.778-3.367,12.142-4.091c5.583-0.926,10.319-4.54,12.669-9.666
	c4.814-10.497,13.913-18.353,24.966-21.554c3.979-1.152,6.27-5.312,5.118-9.291c-1.152-3.979-5.316-6.269-9.29-5.118
	c-15.247,4.416-27.796,15.245-34.429,29.711c-0.271,0.591-0.828,1.009-1.488,1.119c-4.729,0.784-9.209,2.158-13.391,4.016
	C332.846,39.575,295.232,27.999,256,27.999s-76.846,11.576-109.091,33.514c-4.182-1.858-8.661-3.232-13.39-4.016
	c-0.661-0.11-1.218-0.528-1.489-1.12c-9.529-20.777-30.448-33.245-53.292-31.736C51.546,26.424,29.703,48.277,27.93,75.474
	c-0.625,9.575,1.263,19.145,5.459,27.675c0.453,0.921,0.249,1.995-0.508,2.671c-12.856,11.484-19.437,27.957-18.052,45.196
	c0.813,10.119,4.494,19.516,10.202,27.378C9.414,190.822,0,209.95,0,230.13c0,36.404,29.617,66.022,66.021,66.022
	c3.362,0,6.712-0.259,10.018-0.763c12.357,30.299,32.146,56.804,57.1,77.232c-9.221,3.453-16.309,11.556-18.186,21.513
	c-0.768,4.07,1.91,7.992,5.98,8.759c0.47,0.088,0.938,0.131,1.398,0.131c3.535,0,6.683-2.511,7.361-6.112
	c1.11-5.892,6.053-10.427,12.018-11.029c2.786-0.281,5.686-0.506,8.643-0.675c11.015,7.166,22.796,13.248,35.195,18.09
	c-0.158,1.919-0.242,3.832-0.242,5.726c0,15.021,4.723,28.951,12.743,40.415c-7.987,7.586-16.591,14.545-25.665,20.72
	c-4.955,3.373-11.657,3.076-16.296-0.724c-12.702-10.406-21.804-24.933-25.628-40.907c-0.965-4.029-5.011-6.515-9.04-5.547
	c-4.028,0.965-6.513,5.012-5.548,9.041c4.583,19.14,15.489,36.548,30.71,49.017c5.22,4.276,11.683,6.441,18.16,6.441
	c5.616,0,11.244-1.628,16.081-4.919c9.561-6.507,18.635-13.826,27.076-21.795c12.627,11.747,29.534,18.951,48.099,18.951
	s35.472-7.205,48.099-18.951c8.44,7.968,17.513,15.287,27.076,21.795c4.838,3.292,10.464,4.92,16.081,4.919
	c6.477,0,12.941-2.165,18.16-6.441c25.653-21.016,37.774-54.316,31.631-86.905c-1.878-9.956-8.966-18.058-18.187-21.511
	c24.954-20.428,44.743-46.932,57.1-77.232c3.306,0.504,6.656,0.763,10.018,0.763c36.404,0,66.022-29.617,66.022-66.021
	C512,209.951,502.585,190.822,486.968,178.393z M66.021,281.152C37.888,281.152,15,258.263,15,230.13
	c0-16.331,7.574-31.229,20.472-40.837c7.767,6.166,17.209,10.274,27.455,11.452c-0.711,6.456-1.101,12.969-1.17,19.467
	c-8.035-1.417-15.872-1.191-21.508-0.25c-4.086,0.681-6.846,4.545-6.164,8.631c0.681,4.085,4.534,6.845,8.631,6.165
	c4.813-0.804,12.297-0.927,19.49,0.866c1.07,15.672,4.003,30.84,8.586,45.282C69.209,281.052,67.619,281.152,66.021,281.152z
	 M65.861,185.975c-19.039-1.569-34.55-17.115-36.08-36.161c-1.005-12.52,3.768-24.477,13.094-32.809
	c5.745-5.133,7.38-13.554,3.974-20.478c-3.038-6.176-4.403-13.119-3.949-20.078C44.184,56.738,60.013,40.9,79.719,39.608
	c16.595-1.087,31.765,7.949,38.677,23.021c2.35,5.126,7.086,8.74,12.67,9.666c4.362,0.723,8.437,2.129,12.136,4.089
	c0.415,0.29,0.854,0.534,1.312,0.732c12.779,7.409,20.674,21.629,19.49,37.32c-1.471,19.488-17.297,35.142-36.813,36.412
	c-1.549,0.101-3.111,0.112-4.641,0.039c-7.22-0.364-13.921,3.933-16.689,10.672C99.275,177.592,83.189,187.4,65.861,185.975z
	 M256,464.715c-30.709,0-55.692-24.984-55.692-55.693c0-0.214,0.012-0.43,0.014-0.645c17.646,5.289,36.334,8.145,55.678,8.145
	s38.032-2.856,55.678-8.145c0.003,0.214,0.014,0.431,0.014,0.645C311.692,439.732,286.709,464.715,256,464.715z M382.307,396.911
	c5.126,27.196-4.988,54.985-26.396,72.522c-4.638,3.798-11.339,4.097-16.296,0.724c-9.074-6.175-17.678-13.134-25.665-20.72
	c8.019-11.464,12.743-25.394,12.743-40.415c0-1.893-0.084-3.807-0.242-5.726c12.399-4.842,24.179-10.924,35.194-18.09
	c2.963,0.17,5.864,0.394,8.644,0.675C376.253,386.484,381.195,391.02,382.307,396.911z M435.16,228.015
	c-0.343,1.163-0.405,2.413-0.144,3.651c-4.908,94.49-83.325,169.857-179.016,169.857S81.892,326.156,76.984,231.666
	c0.261-1.238,0.199-2.488-0.144-3.651c-0.061-1.911-0.102-3.828-0.102-5.754c0-7.299,0.452-14.63,1.331-21.869
	c18.438-3.001,34.326-15.261,41.667-33.134c0.365-0.889,1.188-1.436,2.077-1.39c2.097,0.104,4.234,0.086,6.351-0.051
	c26.93-1.753,48.768-23.357,50.796-50.253c1.343-17.803-5.804-34.239-18.214-45.188C189.258,52.433,221.968,42.999,256,42.999
	s66.742,9.434,95.253,27.376c-12.41,10.95-19.557,27.386-18.214,45.188c2.028,26.896,23.866,48.5,50.797,50.253
	c2.114,0.137,4.251,0.155,6.352,0.051c0.895-0.045,1.711,0.502,2.076,1.39c7.342,17.875,23.228,30.134,41.668,33.135
	c0.879,7.239,1.33,14.57,1.33,21.869C435.262,224.187,435.22,226.103,435.16,228.015z M445.978,281.152
	c-1.597,0-3.188-0.099-4.771-0.246c4.583-14.442,7.516-29.61,8.586-45.282c7.192-1.793,14.674-1.67,19.49-0.866
	c4.095,0.681,7.95-2.08,8.631-6.165c0.682-4.085-2.078-7.95-6.164-8.631c-5.636-0.94-13.473-1.166-21.508,0.251
	c-0.068-6.498-0.458-13.012-1.17-19.468c10.246-1.178,19.688-5.285,27.455-11.452C489.426,198.9,497,213.799,497,230.13
	C497,258.264,474.112,281.152,445.978,281.152z M280.52,281.666c-3.122-2.721-7.86-2.396-10.582,0.727
	c-3.519,4.038-8.599,6.353-13.938,6.353s-10.419-2.315-13.938-6.353c-2.722-3.124-7.46-3.448-10.582-0.727
	s-3.448,7.459-0.727,10.582c6.368,7.308,15.57,11.499,25.246,11.499s18.878-4.191,25.246-11.499
	C283.968,289.125,283.642,284.387,280.52,281.666z M256,174.973c-26.075,0-47.288,21.213-47.288,47.288S229.925,269.55,256,269.55
	s47.288-21.213,47.288-47.289C303.288,196.186,282.075,174.973,256,174.973z M256,254.549c-17.804,0-32.288-14.484-32.288-32.289
	c0-17.804,14.484-32.288,32.288-32.288s32.288,14.484,32.288,32.288C288.288,240.065,273.804,254.549,256,254.549z M341.727,174.391
	c-13.894,0-25.197,11.303-25.197,25.197c0,4.142,3.357,7.5,7.5,7.5s7.5-3.358,7.5-7.5c0-5.622,4.574-10.197,10.197-10.197
	c5.622,0,10.196,4.575,10.196,10.197c0,4.142,3.357,7.5,7.5,7.5c4.142,0,7.5-3.358,7.5-7.5
	C366.923,185.694,355.62,174.391,341.727,174.391z M170.273,174.391c-13.894,0-25.196,11.303-25.196,25.197
	c0,4.142,3.357,7.5,7.5,7.5s7.5-3.358,7.5-7.5c0-5.622,4.574-10.197,10.196-10.197c5.623,0,10.197,4.575,10.197,10.197
	c0,4.142,3.357,7.5,7.5,7.5s7.5-3.358,7.5-7.5C195.471,185.694,184.167,174.391,170.273,174.391z"/>
<g>
</g>
<g>
</g>
<g>
</g>
<g>
</g>
<g>
</g>
<g>
</g>
<g>
</g>
<g>
</g>
<g>
</g>
<g>
</g>
<g>
</g>
<g>
</g>
<g>
</g>
<g>
</g>
<g>
</g>
</svg>
