<svg id="Capa_1" enable-background="new 0 0 492.639 492.639" height="512" viewBox="0 0 492.639 492.639" width="512" xmlns="http://www.w3.org/2000/svg"><g><g><path d="m406.233 79.767 12.848-14.797c3.918-4.513 8.92-7.949 14.533-9.986l24.81-9.001c2.814-1.021 3.866-4.459 2.107-6.884-27.682-38.184-79.177-50.155-120.811-28.085l-36.77 19.491-52.942 47.348 112.391 54.002z" fill="#60b7ff"/><path d="m477.059 246.235c0-60.9-24.64-116.04-64.47-155.96-39.83-39.91-94.87-64.6-155.65-64.6h-79.66c-61.684 0-112.05 48.583-115.058 109.636-.159 3.227-2.774 5.784-6.005 5.784h-12.377c-15.61 0-28.26 12.68-28.26 28.32 0 7.82 3.16 14.9 8.28 20.02 5.11 5.13 12.18 8.3 19.98 8.3h191.39 59.87l3.291 1.6 8.23-16.813 28.846 21.068 51.21 62.879 4.522 64.827v.001c.6 5.489.91 11.029.91 16.599 0 1.1-.37 2.13-1.02 2.95-.64.82-1.55 1.43-2.62 1.7l-5.2 1.27c-36.64 9.01-68.27 32.1-88.05 64.29l-4.37 7.11c-1.28 2.07-.01 4.78 2.4 5.13l85.13 12.36 68.09 49.29c2.11 1.52 5.07.2 5.35-2.38l4.79-43.36c3-27.23-1.82-54.76-13.89-79.34l21.14-52.51c8.721-21.662 13.201-44.801 13.201-68.171z" fill="#8ac9fe"/><g><path d="m389.439 281.564c-1.33-37.52-14.3-73.68-37.1-103.46l-6.679-7.279h-54.34l-24.491 26.909h28.27l27.05 13.15 31.7 35.88c20.97 23.73 33.95 53.3 37.35 84.53z" fill="#ebebeb"/></g><path d="m261.205 165.289h-24.916-191.39c-7.8 0-14.87-3.17-19.98-8.3-1.384-1.384-2.619-2.915-3.693-4.562-3.546 4.733-5.647 10.614-5.647 16.987 0 7.82 3.16 14.9 8.28 20.02 5.11 5.13 12.18 8.3 19.98 8.3h191.39 25.976z" fill="#60b7ff"/><path d="m239.011 151.994v13.294h.3v25.597c2.541 32.231 21.644 61.07 50.759 75.806 5.926 3 13.126-.002 15.18-6.329l12.693-39.108c5.87-18.085 18.092-33.419 34.396-43.154l14.55-8.688z" fill="#8ac9fe"/><path d="m312.395 227.589c-37.177-12.642-63.376-35.664-72.466-62.301h-.918v18.243c0 35.151 19.745 67.31 51.058 83.16 5.926 3 13.126-.002 15.18-6.329l10.372-31.957c-1.091-.19-2.173-.457-3.226-.816z" fill="#60b7ff"/></g><ellipse cx="144.322" cy="88.617" fill="#acacac" rx="16.799" ry="16.832"/><ellipse cx="139.247" cy="83.582" fill="#f8f6f6" rx="9.343" ry="9.362"/></g></svg>