<svg id="Capa_1" enable-background="new 0 0 512 512" height="512" viewBox="0 0 512 512" width="512" xmlns="http://www.w3.org/2000/svg"><g><g><path clip-rule="evenodd" d="m467.927 72.607c-7.837 2.707-9.637 5.831-13.996 15.401-2.013 4.42-5.455 11.654-1.679 22.893 13.804 15.732 9.75 38.974 11.083 39.768 20.153-19.076 23.356-37.671 18.31-54.054-2.664-8.702-7.68-16.809-13.718-24.008z" fill="#7e707d" fill-rule="evenodd"/></g><g><path clip-rule="evenodd" d="m424.929 39.726c-8.356 3.566-12.318 13.685-13.977 23.403-1.766 10.345-2.397 18.68 2.129 28.128 12.613-1.389 26.757 5.499 39.172 19.643 9.013-16.128 13.492-28.855 15.674-38.294-14.569-17.375-35.062-29.563-42.998-32.88z" fill="#fde588" fill-rule="evenodd"/></g><g><path clip-rule="evenodd" d="m78.76 223.317c-28.004 28.147-47.505 67.745-50.481 117.49 46.513-30.584 95.322-11.48 119.244-2.211 51.19 23.526 152.152 41.554 203.285 15.051 63.548-32.937 38.633-128.573 24.66-187.956-3.883-16.553-5.017-21.769-9.212-38.124-2.098-8.163-4.252-20.323-5.555-34.383 28.373 12.018 41.269 4.79 52.38-1.927 14.937-8.73 18.112-37.132 11.848-51.531-12.868-35.233-96.399-55.811-107.822 15.59-5.017 31.35 18.395 108.788 28.344 167.094 2.976 17.489 20.039 97.167-13.662 88.181-23.724-3.657-.567-67.546-38.01-101.334-13.379-11.792-28.486-20.522-44.501-26.389-5.667 3.431-183.811 43.851-170.518 40.449z" fill="#fe8d94" fill-rule="evenodd"/></g><g><path clip-rule="evenodd" d="m145.313 312.604c-22.902-8.872-68.48-26.729-113.094-1.559-1.984 9.467-3.316 19.388-3.94 29.762 46.513-30.584 95.322-11.48 119.244-2.211 17.233 7.937 40.107 15.221 64.823 20.408 16.44 3.43 33.673 5.952 50.623 7.086 33.276 2.239 65.362-.794 87.839-12.443 41.354-21.429 45.237-69.445 39.058-116.725 1.275 38.039-7.511 73.244-41.269 90.732-51.161 26.504-152.123 8.476-203.284-15.05z" fill="#ff6d75" fill-rule="evenodd"/></g><g><path d="m380.57 57.133c-4.143 0-7.5-3.344-7.5-7.486v-.028c0-4.143 3.357-7.5 7.5-7.5s7.5 3.357 7.5 7.5-3.357 7.514-7.5 7.514z"/></g><g><path clip-rule="evenodd" d="m217.732 171.361c-67.459-6.661-111.903 31.406-160.088 31.321 6.037 9.892 13.549 17.064 21.768 22.223 25.538 16.043 57.822 12.415 74.347 9.155 0 16.412-17.999 27.353-24.064 33.079 20.55 16.213 76.218 4.167 90.815-11.111 4.025 22.251-13.293 43.255-27.211 42.036 71.938 41.355 122.872-47.053 82.879-96.487-5.952-7.341-13.067-13.521-21.173-18.339-10.742-6.407-23.271-10.488-37.273-11.877z" fill="#ffdecf" fill-rule="evenodd"/></g><g><path clip-rule="evenodd" d="m129.695 267.139c20.55 16.213 76.218 4.167 90.815-11.111 1.701-5.584 7.426-17.801-3.005-26.673-10.998 15.618-48.809 31.973-73.922 25.709-5.158 5.272-10.94 9.297-13.888 12.075z" fill="#ffcebe" fill-rule="evenodd"/></g><g><path clip-rule="evenodd" d="m162.064 215.097c-16.525 3.26-48.809 6.888-74.347-9.155-2.664-1.672-5.244-3.571-7.738-5.697-7.426 1.531-14.852 2.438-22.335 2.438 6.037 9.892 13.549 17.064 21.768 22.223 25.538 16.043 57.822 12.415 74.347 9.155 4.62-5.216 8.305-11.537 8.305-18.964z" fill="#ffcebe" fill-rule="evenodd"/></g><g><path clip-rule="evenodd" d="m193.3 298.063c71.938 41.355 122.872-47.053 82.879-96.487-3.883-4.762-8.22-9.042-13.01-12.784-2.579-2.013-5.3-3.883-8.163-5.556-7.795-4.677-16.553-8.078-26.133-10.148.255.17.539.312.794.454v.028c5.244 3.118 10.034 6.774 14.399 10.998 2.381 2.296 4.648 4.734 6.746 7.341 35.117 43.398.196 116.783-57.512 106.154z" fill="#ffcebe" fill-rule="evenodd"/></g><path d="m488.817 94.424c-9.582-31.275-44.988-53.742-58.087-60.286-9.91-21.256-40.324-36.535-68.482-33.827-28.361 2.729-47.514 22.338-52.547 53.8-3.556 22.242 5.66 63.449 15.417 107.076 4.733 21.16 9.627 43.041 12.939 62.458.225 1.321.527 2.99.883 4.944 1.792 9.87 4.792 26.391 5.694 42.134 1.352 23.601-2.913 30.212-4.81 31.959-.571.526-1.913 1.761-6.096.643-.263-.07-.528-.126-.797-.167-4.865-.75-5.913-13.332-7.022-26.653-1.839-22.07-4.356-52.296-27.166-72.861-9.579-8.458-20.271-15.635-31.778-21.351-2.601-1.975-5.301-3.82-8.12-5.496-11.871-7.079-25.455-11.419-40.378-12.899-20.645-2.034-40.715-.345-63.171 5.322-4.017 1.014-6.45 5.091-5.437 9.107 1.014 4.016 5.088 6.449 9.107 5.438 20.726-5.23 39.163-6.801 58.024-4.939 12.71 1.26 24.207 4.912 34.181 10.86 7.312 4.346 13.765 9.936 19.175 16.608 19.903 24.603 13.502 57.976-2.627 76.887-14.196 16.646-34.18 21.884-55.417 15.178 1.346-1.134 2.654-2.392 3.909-3.768 9.727-10.661 14.2-25.948 11.677-39.897-.502-2.776-2.52-5.036-5.223-5.848-2.7-.812-5.631-.038-7.58 2.002-10.604 11.099-50.109 20.652-71.751 14.664 8.14-6.992 17.924-17.288 17.924-31.451 0-2.243-1.004-4.369-2.737-5.794-1.733-1.424-4.017-1.998-6.214-1.564-15.899 3.137-45.992 6.248-68.909-8.149-4.185-2.626-7.992-5.749-11.395-9.339 16.713-2.207 33.014-7.882 50.049-13.812 1.786-.622 3.581-1.247 5.388-1.872 3.915-1.354 5.99-5.624 4.637-9.539-1.354-3.914-5.621-5.993-9.539-4.637-1.816.628-3.622 1.257-5.417 1.882-20.602 7.172-40.061 13.947-59.364 13.947-.038 0-.088.003-.114 0-2.71 0-5.21 1.462-6.538 3.825-1.33 2.366-1.277 5.266.137 7.582 4.32 7.078 9.577 13.215 15.655 18.381-27.524 30.817-43.425 70.515-46.104 115.368-.17 2.833 1.274 5.519 3.731 6.939 2.455 1.42 5.505 1.334 7.875-.226 43.102-28.34 88.005-10.942 112.13-1.595l.072.028c16.62 7.619 37.08 14.257 58.743 19.233v64.752c0 3.075 1.878 5.839 4.736 6.973l47.389 18.783v47.97c0 .666.095 1.307.258 1.921.315 3.853 3.535 6.882 7.469 6.882h29.365c4.143 0 7.5-3.357 7.5-7.5s-3.357-7.5-7.5-7.5h-22.091v-35.828l19.923 7.896c.907.359 1.842.529 2.762.529 2.984 0 5.808-1.795 6.975-4.738 1.526-3.851-.358-8.21-4.209-9.736l-25.45-10.087v-71.008c4.034.171 8.153.273 12.332.273 24.45 0 50.749-3.288 71.457-14.016 56.97-29.52 49.116-103.289 35.909-164.259-.876-4.047-4.864-6.621-8.918-5.742-4.048.877-6.619 4.869-5.742 8.918 5.476 25.278 11.38 57.993 8.408 86.831-3.075 29.849-15.034 49.78-36.558 60.934-19.18 9.936-48.514 13.984-83.556 11.673-.131-.015-.264-.019-.396-.027-4.349-.292-8.78-.677-13.295-1.166-35.168-3.807-73.276-13.649-99.455-25.687-.139-.063-.28-.124-.423-.179l-.285-.11c-22.595-8.754-67.491-26.15-112.854-4.294 4.722-36.314 19.17-68.355 42.263-93.613 20.721 11.366 44.541 12.145 64.02 9.753-3.525 5.79-9.579 10.696-14.094 14.354-1.839 1.491-3.428 2.778-4.736 4.014-1.585 1.497-2.44 3.608-2.344 5.786s1.136 4.206 2.847 5.556c15.463 12.199 42.535 9.503 53.456 7.773 12.804-2.024 24.86-5.774 34.128-10.408-1.473 5.794-4.423 10.713-7.502 14.089-3.694 4.05-7.974 6.4-11.178 6.11-3.494-.309-6.754 1.866-7.81 5.223-1.055 3.357.366 6.997 3.417 8.751 14.38 8.267 27.867 11.676 40.049 11.676 21.192-.001 38.43-10.319 49.522-23.326 17.28-20.261 22.543-47.849 15.492-71.821 12.97 16.317 14.82 38.447 16.337 56.656 1.601 19.215 3.114 37.374 19.271 40.165 2.379.605 4.551.866 6.531.866 6.2-.001 10.499-2.556 13.225-5.066 14.838-13.669 10.201-52.057 3.71-87.806-.343-1.888-.636-3.499-.854-4.781-3.379-19.8-8.315-41.87-13.089-63.215-9.02-40.328-18.346-82.029-15.243-101.433 3.926-24.539 17.837-39.184 39.171-41.236 22.417-2.151 48.24 10.731 54.201 27.037.004.01.009.02.013.03.05.136.095.273.153.407 5.271 12.117 1.688 35.769-8.624 41.979-.075.042-.154.077-.227.121-9.919 5.998-20.176 12.197-45.573 1.439-2.43-1.029-5.222-.704-7.352.852-2.13 1.557-3.285 4.118-3.042 6.746 1.208 13.053 3.307 26.013 5.759 35.555 3.348 13.053 4.699 18.838 7.152 29.339.598 2.555 1.257 5.377 2.023 8.638.947 4.033 4.988 6.536 9.017 5.585 4.032-.947 6.533-4.984 5.585-9.017-.765-3.254-1.422-6.069-2.018-8.619-2.396-10.254-3.843-16.443-7.231-29.655-1.526-5.94-2.91-13.381-3.999-21.367 21.485 6.291 34.213 1.146 45.893-5.734 9.854-.411 21.156 5.83 31.206 17.28 8.684 9.879 8.808 24.081 8.867 30.906.035 4.075.068 7.925 3.912 10.294 2.896 1.786 6.629 1.398 9.097-.94 25.165-23.859 24.938-46.726 20.321-61.696zm-233.347 278.618v66.049l-37.125-14.715v-56.52c10.01 1.896 20.142 3.421 30.152 4.504 2.258.245 4.593.471 6.973.682zm194.906-274.67c-7.02-6.265-14.413-10.612-21.857-12.904 5.204-9.152 7.308-20.855 6.866-31.41 7.677 5.021 16.698 12.06 24.319 20.467-2.033 7.421-5.156 15.404-9.328 23.847zm19.056 33.585c-1.109-6.84-3.425-14.652-8.266-21.755 3.774-7.123 6.911-14.015 9.391-20.63 1.611 2.998 2.95 6.089 3.922 9.26 3.519 11.407 1.872 22.347-5.047 33.125z"/></g></svg>