<svg id="Layer_1" enable-background="new 0 0 512 512" height="512" viewBox="0 0 512 512" width="512" xmlns="http://www.w3.org/2000/svg"><path d="m448.689 275.718c-12.835-7.41-30.955-14.132-50.703-19.719 19.748-5.586 37.868-12.309 50.703-19.719 37.852-21.854 50.867-70.428 29.013-108.28s-70.428-50.867-108.28-29.013c-12.835 7.41-27.718 19.742-42.43 34.052 5.036-19.897 8.275-38.951 8.275-53.772 0-43.708-35.559-79.267-79.267-79.267s-79.267 35.559-79.267 79.267c0 14.822 3.239 33.878 8.276 53.775-14.714-14.311-29.597-26.644-42.433-34.054-37.852-21.854-86.426-8.838-108.28 29.015s-8.838 86.426 29.015 108.28c12.835 7.41 30.955 14.132 50.704 19.719-19.749 5.586-37.869 12.309-50.704 19.719-37.852 21.853-50.867 70.427-29.013 108.279s70.428 50.867 108.28 29.013c12.835-7.41 27.718-19.742 42.431-34.053-5.037 19.897-8.275 38.952-8.275 53.772-.001 43.709 35.558 79.268 79.266 79.268s79.267-35.559 79.267-79.267c0-14.822-3.239-33.877-8.276-53.775 14.714 14.311 29.597 26.644 42.433 34.054 37.852 21.854 86.426 8.838 108.28-29.015 21.854-37.852 8.838-86.426-29.015-108.279zm-370.378-65.416c-23.527-13.583-31.616-43.773-18.034-67.299s43.773-31.616 67.299-18.033c19.412 11.207 50.656 41.532 75.123 72.357-6.04 5.49-11.231 11.911-15.347 19.041s-7.083 14.836-8.816 22.812c-38.929-5.777-80.813-17.671-100.225-28.878zm49.267 176.731c-23.526 13.583-53.717 5.493-67.299-18.033-13.583-23.526-5.494-53.717 18.033-67.3 19.412-11.208 61.296-23.102 100.226-28.879 1.734 7.976 4.7 15.682 8.816 22.812s9.307 13.552 15.347 19.041c-24.468 30.826-55.711 61.151-75.123 72.359zm128.422 94.967c-27.166 0-49.267-22.101-49.267-49.267 0-22.415 10.641-64.635 25.103-101.237 7.774 2.486 15.931 3.771 24.164 3.771s16.39-1.284 24.164-3.771c14.462 36.603 25.103 78.822 25.103 101.237 0 27.166-22.101 49.267-49.267 49.267zm0-176.733c-27.166 0-49.267-22.101-49.267-49.267s22.101-49.267 49.267-49.267 49.267 22.101 49.267 49.267-22.101 49.267-49.267 49.267zm24.164-124.763c-7.774-2.486-15.931-3.771-24.164-3.771s-16.39 1.284-24.164 3.771c-14.462-36.602-25.103-78.821-25.103-101.237 0-27.166 22.101-49.267 49.267-49.267s49.267 22.101 49.267 49.267c0 22.416-10.641 64.635-25.103 101.237zm104.258-55.537c23.526-13.583 53.717-5.493 67.299 18.033 13.583 23.526 5.494 53.717-18.033 67.3-19.413 11.208-61.296 23.103-100.226 28.879-1.734-7.976-4.7-15.682-8.816-22.812s-9.307-13.552-15.347-19.041c24.467-30.826 55.71-61.151 75.123-72.359zm67.301 244.031c-13.583 23.526-43.773 31.616-67.299 18.034-19.413-11.208-50.656-41.532-75.123-72.357 6.04-5.49 11.231-11.911 15.347-19.041s7.083-14.836 8.816-22.812c38.929 5.776 80.813 17.67 100.226 28.878 23.526 13.581 31.616 43.771 18.033 67.298z"/></svg>