<svg id="Capa_1" enable-background="new 0 0 510 510" height="512" viewBox="0 0 510 510" width="512" xmlns="http://www.w3.org/2000/svg"><g><path d="m479.521 208.801c-2.362-20.619-10.943-42.007-38.769-53.759l-.844-.327c-25.333-8.941-52.433-12.4-79.908-10.347l-230-.517c-20.579.48-40.749 4.102-59.908 10.864l-.844.327c-27.826 11.753-36.407 33.14-38.769 53.759h-30.479v30h30.447c1.771 17.024 6.715 37.963 16.497 56.536 16.974 32.226 43.849 49.26 77.719 49.26 25.745 0 53.366-13.283 75.779-36.444 18.979-19.611 32.152-44.323 37.255-69.352h34.607c5.102 25.028 18.275 49.74 37.255 69.352 22.413 23.161 50.034 36.444 75.779 36.444 33.87 0 60.745-17.034 77.719-49.26 9.782-18.573 14.726-39.511 16.497-56.536h30.446v-30zm-209.087 0h-30.869c-.963-9.591-3.553-18.445-7.711-26.141-1.701-3.148-3.676-6.098-5.887-8.859h58.064c-2.211 2.762-4.186 5.711-5.887 8.859-4.156 7.696-6.747 16.55-7.71 26.141z"/><path d="m29.065 323.708-23.564 19.279 18.997 23.219 24.299-19.881c-7.257-6.489-13.862-14.043-19.732-22.617z"/><path d="m463.552 344.157 26.949 22.049 18.997-23.219-26.795-21.923c-5.677 8.713-12.09 16.422-19.151 23.093z"/></g></svg>