<svg id="Capa_1" enable-background="new 0 0 512 512" height="512" viewBox="0 0 512 512" width="512" xmlns="http://www.w3.org/2000/svg"><g><path d="m508 466.581h-504c-2.209 0-4-1.791-4-4v-161.163c0-141.385 114.615-256 256-256 141.385 0 256 114.615 256 256v161.163c0 2.21-1.791 4-4 4z" fill="#daf1f4"/><path d="m349.277 62.943c72.929 45.112 121.516 125.817 121.516 217.871v140.54c0 13.599-11.024 24.623-24.623 24.623h-446.17v16.604c0 2.209 1.791 4 4 4h504c2.209 0 4-1.791 4-4v-161.163c0-108.472-67.465-201.187-162.723-238.475z" fill="#b9e4ef"/><path d="m512 390.075h-97.699c-4.268 0-7.726-3.459-7.726-7.726s3.459-7.726 7.726-7.726h97.699zm-401.874 0v76.506h-15.452v-76.506h-94.674v-15.453h94.674v-68.78h-94.674v-4.424c0-3.695.079-7.372.234-11.028h94.44v-68.78h-81.989c1.713-5.227 3.591-10.38 5.626-15.453h76.365c.088-24.601 5.711-47.922 15.686-68.78h-50.906c4.462-5.34 9.137-10.495 14.013-15.453h45.351c28.474-45.886 79.318-76.505 137.18-76.505s108.705 30.62 137.181 76.506h45.351c4.875 4.958 9.551 10.113 14.012 15.453h-50.906c9.975 20.858 15.598 44.179 15.686 68.78h76.365c2.035 5.073 3.912 10.226 5.625 15.453h-81.989v62.815c0 2.402-1.096 4.548-2.815 5.965h97.255c.155 3.657.234 7.333.234 11.028v4.424h-107.005c-4.268 0-7.726-3.459-7.726-7.726 0-4.167 3.299-7.563 7.428-7.72-1.723-1.417-2.823-3.566-2.823-5.971v-62.816h-86.947v54.612c0 4.267-3.459 7.726-7.726 7.726s-7.726-3.459-7.726-7.726v-54.612h-86.947v68.78h36.772c4.267 0 7.726 3.459 7.726 7.726s-3.459 7.726-7.726 7.726h-36.772v42.323c0 4.267-3.459 7.726-7.726 7.726s-7.726-3.459-7.726-7.726v-42.323h-86.948v68.78h86.948c4.267 0 7.726 3.459 7.726 7.726s-3.459 7.726-7.726 7.726h-86.949zm189.347-183.918c-.031-24.381-1.967-47.825-5.597-68.78h-75.753c-3.63 20.956-5.566 44.399-5.597 68.78zm84.826-68.78h-74.872c3.609 21.795 5.468 45.495 5.499 68.78h86.945c-.098-24.873-6.454-48.299-17.572-68.78zm-99.935-73.738c9.592 13.792 17.012 34.402 22.138 58.285h68.114c-21.228-29.6-53.247-50.963-90.252-58.285zm-57.238 36.938c-2.208 6.625-4.184 13.771-5.915 21.348h69.577c-1.731-7.577-3.706-14.723-5.915-21.348-8.163-24.491-19.227-39.706-28.873-39.706s-20.71 15.215-28.874 39.706zm-89.742 21.348h68.115c5.126-23.883 12.545-44.494 22.138-58.285-37.006 7.321-69.025 28.684-90.253 58.285zm-27.256 84.232h86.946c.031-23.285 1.89-46.985 5.499-68.78h-74.873c-11.118 20.481-17.473 43.907-17.572 68.78zm-.002 84.233h86.948v-68.78h-86.948z" fill="#b9e4ef"/><path d="m459.735 206.157h33.954c2.035 5.073 3.912 10.226 5.625 15.453h-35.403c-1.234-5.214-2.628-10.367-4.176-15.453zm52.265 95.261c0-3.695-.079-7.372-.234-11.028h-40.974v15.453h41.208zm-417.326 144.56v20.604h15.453v-20.604zm417.326-71.356h-41.207v15.453h41.207zm-96.471-252.697c3.965 5.003 7.747 10.157 11.336 15.453h25.68c-4.462-5.34-9.137-10.495-14.012-15.453z" fill="#93d8e4"/><path d="m27.568 280.089c-.32 0-.643-.02-.969-.061-4.234-.53-7.237-4.392-6.707-8.626 1.428-11.411 3.7-22.791 6.753-33.824 1.138-4.113 5.395-6.524 9.507-5.386 4.113 1.138 6.524 5.394 5.386 9.507-2.854 10.313-4.978 20.952-6.313 31.622-.489 3.908-3.817 6.768-7.657 6.768z" fill="#ecf9f9"/><path d="m55.43 195.857c-1.291 0-2.6-.324-3.803-1.007-3.712-2.104-5.016-6.819-2.911-10.532 6.72-11.854 14.546-23.233 23.262-33.823 2.711-3.295 7.58-3.768 10.876-1.056 3.295 2.712 3.768 7.581 1.056 10.876-8.151 9.903-15.469 20.543-21.75 31.624-1.424 2.509-4.039 3.918-6.73 3.918z" fill="#ecf9f9"/><path d="m296.635 268.495c-66.498 0-120.405 53.907-120.405 120.405v77.681h69.205l120.405-198.086z" fill="#b9e4ef"/><path d="m176.231 445.978h69.205v20.604h-69.205z" fill="#93d8e4"/><path d="m286.34 298.472c-5.348 4.705-10.275 9.877-14.718 15.453h-69.205c4.443-5.575 9.37-10.747 14.718-15.453zm-110.109 108.456h69.205v-15.453h-69.205z" fill="#93d8e4"/><path d="m486.245 466.581h-240.81v-77.681c0-66.498 53.907-120.405 120.405-120.405 66.498 0 120.405 53.907 120.405 120.405z" fill="#ecf9f9"/><path d="m358.114 268.739c2.555-.162 5.131-.244 7.727-.244 2.595 0 5.171.082 7.726.244v55.803c0 4.267-3.459 7.726-7.726 7.726-4.268 0-7.726-3.459-7.726-7.726v-55.803zm-42.698 80.664c1.509 1.509 3.487 2.263 5.464 2.263s3.955-.755 5.464-2.263c3.017-3.017 3.017-7.909 0-10.927l-40.004-40.004c-3.871 3.406-7.521 7.056-10.927 10.927zm88.344 1.576c1.509 1.509 3.486 2.263 5.464 2.263 1.977 0 3.955-.755 5.464-2.263l41.58-41.58c-3.406-3.871-7.056-7.521-10.927-10.927l-41.581 41.58c-3.017 3.018-3.017 7.91 0 10.927zm-158.324 55.949h56.709c4.268 0 7.726-3.459 7.726-7.726s-3.459-7.726-7.726-7.726h-56.709zm240.809-15.453h-57.74c-4.268 0-7.726 3.459-7.726 7.726s3.459 7.726 7.726 7.726h57.74z" fill="#e2f4f9"/><path d="m365.841 314.903c-15.834 0-30.522 4.999-42.569 13.502l21.233 138.177h95.334v-77.682c-.001-40.802-33.196-73.997-73.998-73.997z" fill="#b9e4ef"/><path d="m376.035 315.603c13.922 13.715 22.596 32.841 22.596 53.722v55.064c0 11.923-9.666 21.589-21.589 21.589h-35.703l13.361 20.604h85.139v-77.682c-.001-37.344-27.808-68.316-63.804-73.297z" fill="#93d8e4"/><path d="m323.271 328.405c-18.997 13.408-31.428 35.527-31.428 60.495v77.682h62.855v-77.682c0-24.968-12.43-47.088-31.427-60.495z" fill="#70c6da"/><path d="m291.843 445.978h62.855v20.604h-62.855z" fill="#6bbcd5"/></g></svg>