<svg id="Capa_1" enable-background="new 0 0 512 512" height="512" viewBox="0 0 512 512" width="512" xmlns="http://www.w3.org/2000/svg"><g><path d="m297.29 379.871h-33.032v16.516h33.032c4.565 0 8.258-3.694 8.258-8.258s-3.693-8.258-8.258-8.258z" fill="#eac89f"/><path d="m297.29 421.161h-33.032v57.806h33.032c9.121 0 16.516-7.395 16.516-16.516v-24.774c0-9.122-7.394-16.516-16.516-16.516z" fill="#eac89f"/><path d="m310.701 1.122c-22.019-4.346-42.32 4.302-54.701 19.62-12.381-15.318-32.682-23.966-54.701-19.62-1.636.323-3.248.723-4.831 1.196-21.973 6.564-31.718 35.682-31.718 50.292 0 51.714 53.891 100.249 82.659 121.685v321.189c0 4.56 3.697 8.258 8.258 8.258h8.591c4.561 0 8.258-3.698 8.258-8.258v-321.189c28.767-21.435 84.841-70.023 82.51-121.685-1.117-24.794-19.975-46.683-44.325-51.488zm-54.701 144.256c-41.922-32.012-67.133-66.771-66.027-91.281.435-9.658 8.219-18.693 17.722-20.568 1.669-.33 3.335-.496 4.949-.496 6.874 0 13.314 3.089 17.665 8.473 6.272 7.76 15.714 12.269 25.691 12.269s19.419-4.509 25.691-12.269c4.352-5.385 10.791-8.473 17.665-8.473 1.614 0 3.28.167 4.949.496 9.503 1.875 17.287 10.91 17.722 20.568 1.106 24.51-24.105 59.269-66.027 91.281z" fill="#f4dbb3"/><path d="m264.258 495.484c-4.561 0-8.258-3.697-8.258-8.258v-309.173c0-7.51-3.493-14.553-9.364-19.237-30.034-23.963-75.244-67.968-73.146-114.464.757-16.788 9.757-32.311 22.978-42.035-21.935 6.59-38.453 27.191-39.494 50.293-2.33 51.662 53.743 100.249 82.51 121.685v329.447c0 4.561 3.697 8.258 8.258 8.258h16.516c4.561 0 8.258-3.697 8.258-8.258v-8.258z" fill="#eac89f"/></g></svg>