<?xml version="1.0" encoding="iso-8859-1"?>
<!-- Generator: Adobe Illustrator 19.0.0, SVG Export Plug-In . SVG Version: 6.00 Build 0)  -->
<svg version="1.1" id="Capa_1" xmlns="http://www.w3.org/2000/svg" xmlns:xlink="http://www.w3.org/1999/xlink" x="0px" y="0px"
	 viewBox="0 0 512.001 512.001" style="enable-background:new 0 0 512.001 512.001;" xml:space="preserve">
<g>
	<g>
		<path d="M382.198,443.734h-3.959c0.956-2.679,1.57-5.53,1.57-8.533c0-14.114-11.486-25.6-25.6-25.6h-17.067v-17.067h25.805
			c4.71,0,8.533-3.823,8.533-8.533c0-1.289-0.282-2.509-0.794-3.601c-1.519-8.166-7.723-54.929,19.61-173.687
			c13.841-60.109,7.006-107.989-20.301-142.293c-23.356-29.346-62.37-46.985-104.55-47.343L211.668,0.385
			c-3.098-0.964-6.477-0.085-8.713,2.278c-2.236,2.355-2.944,5.777-1.818,8.823l11.878,32.239
			c-13.756,2.159-35.473,8.713-42.786,28.621l-24.695,26.82c-11.042,11.989-21.376,26.112-30.711,41.975l-2.679,4.497
			c-8.346,13.901-16.973,28.271-13.167,43.418c1.613,6.426,5.453,12.211,11.375,17.314l32.87-32.828
			c3.413-3.243,8.815-3.115,12.066,0.307c3.243,3.413,3.115,8.815-0.307,12.066l-31.027,30.985
			c6.511,4.625,16.794,9.975,29.346,9.301c14.268-0.777,27.324-8.986,38.81-24.397c1.707-1.655,11.759-10.197,27.75,1.382
			c0.299,0.213,0.606,0.41,0.93,0.589c0.239,0.128,2.125,1.126,5.385,2.176c-32.282,22.869-75.307,72.781-80.384,177.638
			c-0.111,2.33,0.734,4.608,2.347,6.298c1.596,1.69,3.831,2.645,6.17,2.645h29.235v17.067h-17.067c-14.114,0-25.6,11.486-25.6,25.6
			c0,3.004,0.614,5.854,1.579,8.533h-3.959c-17.502,0-31.744,14.242-31.744,31.744v27.989c0,4.71,3.823,8.533,8.533,8.533h290.133
			c4.71,0,8.533-3.823,8.533-8.533v-27.989C413.942,457.976,399.7,443.734,382.198,443.734z M220.175,116.967
			c-3.337-3.337-3.337-8.73,0-12.066l17.067-17.067c3.328-3.337,8.73-3.337,12.066,0c3.337,3.336,3.337,8.73,0,12.066
			l-17.067,17.067c-1.664,1.664-3.849,2.5-6.033,2.5S221.848,118.631,220.175,116.967z M200.608,392.534h119.467v17.067H200.608
			V392.534z M396.875,494.934H123.808v-19.456c0-8.098,6.579-14.677,14.677-14.677h27.989h187.733h27.989
			c8.098,0,14.677,6.579,14.677,14.677V494.934z"/>
	</g>
</g>
<g>
</g>
<g>
</g>
<g>
</g>
<g>
</g>
<g>
</g>
<g>
</g>
<g>
</g>
<g>
</g>
<g>
</g>
<g>
</g>
<g>
</g>
<g>
</g>
<g>
</g>
<g>
</g>
<g>
</g>
</svg>
