<?xml version="1.0" encoding="iso-8859-1"?>
<!-- Generator: Adobe Illustrator 19.0.0, SVG Export Plug-In . SVG Version: 6.00 Build 0)  -->
<svg version="1.1" id="Capa_1" xmlns="http://www.w3.org/2000/svg" xmlns:xlink="http://www.w3.org/1999/xlink" x="0px" y="0px"
	 viewBox="0 0 510.948 510.948" style="enable-background:new 0 0 510.948 510.948;" xml:space="preserve">
<g>
	<ellipse style="fill:#3F4347;" cx="326.933" cy="20.043" rx="20.033" ry="20.033"/>
	
		<rect x="301.995" y="14.851" transform="matrix(0.9096 0.4154 -0.4154 0.9096 50.9261 -123.9241)" style="fill:#3F4347;" width="16.607" height="80.477"/>
	<ellipse style="fill:#3F4347;" cx="184.041" cy="20.039" rx="20.033" ry="20.033"/>
	
		<rect x="192.442" y="14.887" transform="matrix(-0.9096 0.4154 -0.4154 -0.9096 406.2495 21.8769)" style="fill:#3F4347;" width="16.607" height="80.477"/>
	<circle style="fill:#3F4347;" cx="255.474" cy="147.476" r="98.608"/>
</g>
<circle style="fill:#E14B4B;" cx="255.474" cy="325.316" r="185.632"/>
<g>
	<path style="fill:#3F4347;" d="M255.474,510.948c22.816,0,44.576-4.32,64.768-11.84l-64.768-282.336l-64.768,282.32
		C210.898,506.628,232.658,510.948,255.474,510.948z"/>
	<circle style="fill:#3F4347;" cx="187.65" cy="222.132" r="17.84"/>
	<circle style="fill:#3F4347;" cx="158.562" cy="390.852" r="17.84"/>
	<circle style="fill:#3F4347;" cx="119.922" cy="287.796" r="24.976"/>
	<circle style="fill:#3F4347;" cx="323.298" cy="222.132" r="17.84"/>
	<circle style="fill:#3F4347;" cx="352.434" cy="390.852" r="17.84"/>
	<circle style="fill:#3F4347;" cx="391.026" cy="287.796" r="24.976"/>
</g>
<g transform="matrix(0.9694 -0.2453 0.2453 0.9694 -0.947 3.615)">
	
		<ellipse transform="matrix(2.533066e-006 1 -1 2.533066e-006 335.3926 -58.976)" style="fill:#FFFFFF;" cx="197.184" cy="138.209" rx="24.32" ry="13.552"/>
	
		<ellipse transform="matrix(-0.9694 -0.2453 0.2453 -0.9694 354.44 320.5655)" style="fill:#3F4347;" cx="197.184" cy="138.209" rx="8.944" ry="8.944"/>
</g>
<g>
	<ellipse style="fill:#FFFFFF;" cx="226.864" cy="84.515" rx="1.744" ry="1.744"/>
	
		<ellipse transform="matrix(-0.9694 -0.2453 0.2453 -0.9694 543.0545 246.1388)" style="fill:#FFFFFF;" cx="286.857" cy="89.248" rx="13.551" ry="24.319"/>
</g>
<ellipse style="fill:#3F4347;" cx="286.857" cy="89.248" rx="8.944" ry="8.944"/>
<ellipse style="fill:#FFFFFF;" cx="284.042" cy="84.517" rx="1.744" ry="1.744"/>
<g>
</g>
<g>
</g>
<g>
</g>
<g>
</g>
<g>
</g>
<g>
</g>
<g>
</g>
<g>
</g>
<g>
</g>
<g>
</g>
<g>
</g>
<g>
</g>
<g>
</g>
<g>
</g>
<g>
</g>
</svg>
