<?xml version="1.0" encoding="iso-8859-1"?>
<!-- Generator: Adobe Illustrator 19.0.0, SVG Export Plug-In . SVG Version: 6.00 Build 0)  -->
<svg version="1.1" id="Capa_1" xmlns="http://www.w3.org/2000/svg" xmlns:xlink="http://www.w3.org/1999/xlink" x="0px" y="0px"
	 viewBox="0 0 389.84 389.84" style="enable-background:new 0 0 389.84 389.84;" xml:space="preserve">
<path style="fill:#D7443E;" d="M388.98,182.906l-0.26,0.47l-66.32,13.15c-5.171,1.026-10.488,1.084-15.68,0.17l-58.77-10.36
	c-10.788-1.908-21.896,0.42-31.01,6.5c-12.709,8.477-28.986,9.492-42.65,2.66l-9.27-4.64c-9.626-4.812-20.717-5.798-31.04-2.76
	l-34.81,10.223c-6.646,1.959-13.67,2.261-20.46,0.88l-78.13-15.82l-0.13-0.24l116.82-62.57c15.897-8.509,35.041-8.301,50.75,0.55
	l1.54,0.87c16.497,9.299,36.715,9.032,52.96-0.7c16.063-9.621,36.025-9.998,52.44-0.99L388.98,182.906z"/>
<path style="fill:#CE3C3C;" d="M0.58,181.876l78.13,15.82c6.79,1.381,13.814,1.079,20.46-0.88l34.81-10.22
	c10.323-3.038,21.414-2.052,31.04,2.76l9.27,4.64c13.664,6.832,29.941,5.817,42.65-2.66c9.114-6.08,20.222-8.408,31.01-6.5
	l58.77,10.36c5.192,0.914,10.509,0.856,15.68-0.17l66.32-13.15l0.26-0.47l0.86,0.47l-88.76,74.67
	c-21.851,18.393-51.696,24.097-78.79,15.06c-16.818-5.6-34.996-5.61-51.82-0.03l-0.85,0.28c-26.783,8.897-56.258,3.405-78.04-14.54
	L0,181.876l0.45-0.24L0.58,181.876z"/>
<g>
</g>
<g>
</g>
<g>
</g>
<g>
</g>
<g>
</g>
<g>
</g>
<g>
</g>
<g>
</g>
<g>
</g>
<g>
</g>
<g>
</g>
<g>
</g>
<g>
</g>
<g>
</g>
<g>
</g>
</svg>
