<?xml version="1.0" encoding="iso-8859-1"?>
<!-- Generator: Adobe Illustrator 19.0.0, SVG Export Plug-In . SVG Version: 6.00 Build 0)  -->
<svg version="1.1" id="Capa_1" xmlns="http://www.w3.org/2000/svg" xmlns:xlink="http://www.w3.org/1999/xlink" x="0px" y="0px"
	 viewBox="0 0 512.001 512.001" style="enable-background:new 0 0 512.001 512.001;" xml:space="preserve">
<polygon style="fill:#FF4F4F;" points="154.174,397.484 3.372,271.558 52.126,261.973 35.672,190.975 106.681,207.418 
	116.266,158.662 184.248,240.086 158.95,61.219 208.838,88.628 255.995,9.128 303.153,88.628 353.041,61.219 327.734,240.106 
	395.735,158.662 405.32,207.418 471.804,192.02 476.076,192.02 475.201,195.837 459.874,261.973 508.63,271.558 357.797,397.5 
	376.942,434.073 255.995,406.901 134.979,434.074 "/>
<path d="M3.727,281.318l141.29,117.983l-13.346,25.439c-1.878,3.581-1.506,7.929,0.955,11.138c2.462,3.208,6.563,4.698,10.509,3.81
	l102.486-23.012v80.094c0,5.732,4.646,10.378,10.378,10.378s10.378-4.646,10.378-10.378v-80.09l102.414,23.008
	c0.757,0.17,1.519,0.253,2.275,0.253c3.182,0,6.242-1.467,8.232-4.059c2.462-3.207,2.837-7.551,0.962-11.134l-13.311-25.428
	l141.325-118.002c3.071-2.564,4.395-6.666,3.402-10.542c-0.993-3.875-4.125-6.835-8.051-7.607l-34.976-6.875l13.632-58.817
	c0.714-3.083-0.022-6.323-1.99-8.8c-1.969-2.477-4.965-3.921-8.129-3.921c-0.788,0-1.574,0.089-2.341,0.268l-58.818,13.623
	l-6.875-34.978c-0.772-3.926-3.732-7.059-7.607-8.051c-3.876-0.995-7.978,0.33-10.542,3.402l-47.475,56.861L359.365,68.4
	c0.55-3.892-1.145-7.76-4.377-9.993c-3.234-2.233-7.451-2.448-10.896-0.557l-38.275,21.028L264.921,9.936
	c-1.869-3.152-5.262-5.083-8.926-5.083s-7.056,1.932-8.926,5.083l-40.893,68.94L167.9,57.849c-3.444-1.892-7.662-1.676-10.895,0.557
	c-3.234,2.233-4.928,6.101-4.377,9.992l20.856,147.462l-47.457-56.841c-2.564-3.071-6.668-4.396-10.542-3.402
	c-3.876,0.993-6.836,4.125-7.608,8.051l-6.875,34.978l-58.83-13.623c-3.487-0.808-7.147,0.24-9.681,2.773
	c-2.532,2.532-3.579,6.192-2.771,9.681l13.632,58.817l-34.976,6.875c-3.926,0.772-7.058,3.731-8.051,7.607
	C-0.668,274.652,0.657,278.754,3.727,281.318z M57.888,274.589c2.761-0.542,5.182-2.182,6.71-4.543
	c1.529-2.361,2.033-5.242,1.398-7.983l-12.299-53.066l53.076,12.291c2.74,0.635,5.622,0.13,7.981-1.399
	c2.361-1.529,4.001-3.95,4.542-6.71l4.747-24.149l56.848,68.089c2.97,3.558,7.942,4.715,12.18,2.832
	c4.237-1.883,6.711-6.347,6.062-10.937L176.084,86.026l28.898,15.876c4.907,2.695,11.067,1.014,13.923-3.801l37.09-62.527
	l37.09,62.527c2.855,4.815,9.016,6.497,13.923,3.801l28.898-15.875l-23.061,163.009c-0.65,4.59,1.824,9.056,6.062,10.938
	c4.237,1.883,9.208,0.726,12.181-2.832l56.868-68.111l4.748,24.15c0.542,2.761,2.182,5.182,4.542,6.71
	c2.361,1.529,5.241,2.034,7.982,1.399l53.076-12.293l-12.299,53.068c-0.635,2.741-0.131,5.621,1.398,7.983
	c1.529,2.361,3.951,4.001,6.71,4.543l24.15,4.748L348.321,387.837c-0.103,0.064-0.204,0.13-0.305,0.198
	c-4.375,2.959-5.83,8.731-3.381,13.409l6.847,13.08l-85.104-19.119v-66.76c0-5.732-4.646-10.378-10.378-10.378
	c-5.732,0-10.378,4.646-10.378,10.378v66.758l-85.149,19.119l6.818-12.995c2.271-4.329,1.213-9.655-2.538-12.788L33.738,279.337
	L57.888,274.589z"/>
<path d="M336.379,366.294c2.345,0,4.704-0.792,6.646-2.413l49.875-41.644c4.399-3.674,4.989-10.218,1.315-14.617
	c-3.674-4.4-10.218-4.989-14.617-1.315l-49.875,41.644c-4.399,3.674-4.989,10.218-1.315,14.617
	C330.46,365.026,333.409,366.294,336.379,366.294z"/>
<path d="M411.665,304.777c13.355,0,13.377-20.756,0-20.756C398.31,284.021,398.288,304.777,411.665,304.777z"/>
<g>
</g>
<g>
</g>
<g>
</g>
<g>
</g>
<g>
</g>
<g>
</g>
<g>
</g>
<g>
</g>
<g>
</g>
<g>
</g>
<g>
</g>
<g>
</g>
<g>
</g>
<g>
</g>
<g>
</g>
</svg>
