<svg height="512" viewBox="0 0 54 58" width="512" xmlns="http://www.w3.org/2000/svg"><g id="Page-1" fill="none" fill-rule="evenodd"><g id="016---Scarecrow" fill-rule="nonzero"><path id="Shape" d="m29 50v6c0 1.1045695-.8954305 2-2 2s-2-.8954305-2-2v-6z" fill="#805333"/><path id="Shape" d="m36 31h9c.5522847 0 1 .4477153 1 1v7.719c-.0000081.3080147-.1419601.5988398-.3847868.7883345-.2428268.1894947-.5594308.2565131-.8582132.1816655l-9.979-2.489c-.4544873-.113844-.9270847.1031269-1.137.522l-2.434 4.868c-.1312762.2631659-.1400546.5707759-.024.841l1.742 4.065c.1653398.3858305.0721193.8338524-.2333958 1.1217116-.3055151.2878591-.7582871.3542762-1.1336042.1662884l-.913-.457c-.3853051-.1926528-.8506823-.1169031-1.155.188l-1.783 1.783c-.3904999.3903819-1.0235001.3903819-1.414 0l-1.783-1.788c-.3043177-.3049031-.7696949-.3806528-1.155-.188l-.913.457c-.3753171.1879878-.8280891.1215707-1.1336042-.1662884-.3055151-.2878592-.3987356-.7358811-.2333958-1.1217116l1.742-4.065c.1160546-.2702241.1072762-.5778341-.024-.841l-2.434-4.868c-.2099153-.4188731-.6825127-.635844-1.137-.522l-9.979 2.494c-.29878238.0748476-.61538644.0078292-.85821317-.1816655-.24282674-.1894947-.38477873-.4803198-.38478683-.7883345v-7.719c0-.5522847.44771525-1 1-1z" fill="#f29c1f"/><g fill="#805333"><circle id="Oval" cx="27" cy="40" r="1"/><circle id="Oval" cx="27" cy="44" r="1"/><path id="Shape" d="m2 32h6v4h-6c-1.1045695 0-2-.8954305-2-2s.8954305-2 2-2z"/><path id="Shape" d="m48 32h6v4h-6c-1.1045695 0-2-.8954305-2-2s.8954305-2 2-2z" transform="matrix(-1 0 0 -1 100 68)"/></g><path id="Shape" d="m17.03 7.87.9-4.23c.4188462-1.51440036 1.6946369-2.63709611 3.25-2.86l2.25-.44c2.3587288-.450002 4.7812712-.450002 7.14 0l2.25.44c1.5553631.22290389 2.8311538 1.34559964 3.25 2.86l.9 4.23z" fill="#e57e25"/><path id="Shape" d="m41.74 18.15c2.66-.86 4.26-1.95 4.26-3.15 0-1.8-3.61-5.07-9.03-7.13-6.4128425-2.49331201-13.5271575-2.49331201-19.94 0-5.42 2.06-9.03 5.33-9.03 7.13 0 1.2 1.6 2.29 4.26 3.15z" fill="#f29c1f"/><path id="Shape" d="m42 20c0 2.821-1.757 5.367-4.576 7.188-1.2118528.7299824-1.9416454 2.05154-1.914 3.466.0311325.6653739.1978754 1.3173725.49 1.916 0 0-4.5 1.14-5.62-1.14 0 0-3.38 2.28-3.38 4.57 0-2.29-3.38-4.57-3.38-4.57-1.12 2.28-5.62 1.14-5.62 1.14.2921246-.5986275.4588675-1.2506261.49-1.916.0276454-1.41446-.7021472-2.7360176-1.914-3.466-2.819-1.821-4.576-4.367-4.576-7.188 0-5.52 6.72-10 15-10s15 4.48 15 10z" fill="#a59078"/><circle id="Oval" cx="20" cy="18" fill="#35495e" r="3"/><circle id="Oval" cx="34" cy="18" fill="#35495e" r="3"/><path id="Shape" d="m28 21h-2c-.5522847 0-1-.4477153-1-1s.4477153-1 1-1h2c.5522847 0 1 .4477153 1 1s-.4477153 1-1 1z" fill="#5f5346"/><path id="Shape" d="m34.948 24.316c.1704956-.5125457-.1026872-1.0669331-.613-1.244-.5145746-.1795394-1.0787898.0815484-1.275.59-.2132265.4260468-.5328843.7897952-.928 1.056l-.425-.425c-.369342-.3794598-.9717462-.4015146-1.3678472-.0500786s-.4459339.9521805-.1131528 1.3640786c-.7294955.1986874-1.4780238.3193637-2.233.36 0-.5484188-.4445812-.993-.993-.993s-.993.4445812-.993.993c-.7549762-.0406363-1.5035045-.1613126-2.233-.36.3327811-.4118981.2829482-1.0126426-.1131528-1.3640786s-.9985052-.3293812-1.3678472.0500786l-.427.427c-.3889176-.2618814-.7048237-.6183942-.918-1.036-.1128959-.3394023-.398285-.5927937-.748664-.6647242-.350379-.0719304-.712517.0485282-.95.3160001-.2374831.2674719-.3142319.6413218-.201336.9807241.299924.7170146.7826488 1.3428328 1.4 1.815l-.162.162c-.2599566.2510745-.3642126.6228779-.2726972.9725073.0915155.3496295.3645604.6226744.7141899.7141899.3496294.0915154.7214328-.0127406.9725073-.2726972l.527-.527c1.2047865.4714061 2.4801956.7371022 3.773.786v.034c0 .5522847.4477153 1 1 1s1-.4477153 1-1v-.034c1.29044-.0496766 2.5634191-.3153594 3.766-.786l.527.527c.3923789.3789722 1.0160848.3735524 1.4018186-.0121814s.3911536-1.0094397.0121814-1.4018186l-.162-.162c.6184521-.471786 1.1022379-1.0976387 1.403-1.815z" fill="#5f5346"/><circle id="Oval" cx="19" cy="17" fill="#fff" r="1"/><circle id="Oval" cx="33" cy="17" fill="#fff" r="1"/><path id="Shape" d="m23 17h-6c-.5522847 0-1-.4477153-1-1s.4477153-1 1-1h6c.5522847 0 1 .4477153 1 1s-.4477153 1-1 1z" fill="#5f5346"/><path id="Shape" d="m37 17h-6c-.5522847 0-1-.4477153-1-1s.4477153-1 1-1h6c.5522847 0 1 .4477153 1 1s-.4477153 1-1 1z" fill="#5f5346"/></g></g></svg>