<svg id="Capa_1" enable-background="new 0 0 512 512" height="512" viewBox="0 0 512 512" width="512" xmlns="http://www.w3.org/2000/svg"><g><path d="m469.981 193.849c-1.718-8.104-9.682-13.279-17.786-11.561l-24.728 5.245 5.245-24.728c1.719-8.104-3.457-16.067-11.561-17.786-8.107-1.72-16.067 3.457-17.786 11.561l-9.112 42.953-35.312 35.312c-5.858 5.858-5.858 15.355 0 21.213 2.929 2.929 6.768 4.394 10.606 4.394s7.678-1.464 10.606-4.394l35.312-35.312 42.953-9.111c8.106-1.719 13.282-9.683 11.563-17.786z" fill="#c8733c"/><path d="m117.746 199.532-9.112-42.953c-1.719-8.104-9.679-13.28-17.786-11.561-8.104 1.719-13.28 9.682-11.561 17.786l5.245 24.728-24.728-5.245c-8.103-1.72-16.067 3.457-17.786 11.561s3.457 16.067 11.561 17.786l42.953 9.111 35.312 35.312c2.929 2.929 6.767 4.394 10.606 4.394 3.838 0 7.678-1.465 10.606-4.394 5.858-5.857 5.858-15.355 0-21.213z" fill="#f0915a"/><path d="m390.123 256.049c-18.453-26.681-44.088-47.087-74.135-59.014-5.705-2.264-12.211-.825-16.429 3.631-11.512 12.164-27.053 18.862-43.76 18.862s-32.248-6.699-43.76-18.862c-4.218-4.457-10.725-5.896-16.429-3.631-30.047 11.927-55.683 32.333-74.136 59.014-18.9 27.327-28.891 59.395-28.891 92.736.001 89.997 73.219 163.215 163.216 163.215s163.215-73.218 163.215-163.215c0-33.341-9.99-65.409-28.891-92.736z" fill="#d7e9ff"/><path d="m390.123 256.049c-18.453-26.681-44.088-47.087-74.135-59.014-5.705-2.264-12.211-.825-16.429 3.631-11.512 12.164-27.053 18.862-43.76 18.862v292.472c89.997 0 163.215-73.218 163.215-163.215 0-33.341-9.99-65.409-28.891-92.736z" fill="#b0d5f7"/><ellipse cx="255.799" cy="159.27" fill="#f2f2fc" rx="90.258" ry="90.258" transform="matrix(.707 -.707 .707 .707 -37.699 227.526)"/><path d="m255.799 69.011v180.517c49.769 0 90.259-40.49 90.259-90.258 0-49.769-40.49-90.259-90.259-90.259z" fill="#d7e9ff"/><circle cx="255.799" cy="375.718" fill="#5c5454" r="15.808"/><path d="m255.799 359.91c8.73 0 15.808 7.077 15.808 15.808s-7.077 15.808-15.808 15.808z" fill="#463f3f"/><circle cx="255.799" cy="319.512" fill="#5c5454" r="15.808"/><path d="m255.799 303.704c8.73 0 15.808 7.077 15.808 15.808s-7.077 15.808-15.808 15.808z" fill="#463f3f"/><circle cx="280.508" cy="149.27" fill="#463f3f" r="13.786"/><circle cx="231.492" cy="149.27" fill="#5c5454" r="13.786"/><path d="m322.331 69.011h-10.833v-54.011c0-8.284-6.716-15-15-15h-81.924c-8.284 0-15 6.716-15 15v54.011h-10.308c-8.284 0-15 6.716-15 15s6.716 15 15 15h133.064c8.284 0 15-6.716 15-15s-6.715-15-14.999-15z" fill="#5c5454"/><path d="m322.331 69.011h-10.833v-54.011c0-8.284-6.716-15-15-15h-40.699v99.011h66.532c8.284 0 15-6.716 15-15s-6.716-15-15-15z" fill="#463f3f"/></g></svg>