<svg id="Capa_1" enable-background="new 0 0 512 512" height="512" viewBox="0 0 512 512" width="512" xmlns="http://www.w3.org/2000/svg"><g><path d="m256 120.258c-6.32 0-12.64-2.411-17.463-7.233l-67.608-67.608c-9.644-9.644-9.644-25.281 0-34.925 9.644-9.644 25.281-9.644 34.925 0l50.146 50.145 50.146-50.146c9.644-9.644 25.281-9.644 34.925 0s9.644 25.281 0 34.925l-67.608 67.608c-4.822 4.823-11.142 7.234-17.463 7.234z" fill="#7acdf9"/><path d="m256 191.091c-13.639 0-24.696-11.056-24.696-24.696v-134.827c0-13.639 11.057-24.696 24.696-24.696s24.696 11.056 24.696 24.696v134.827c0 13.64-11.056 24.696-24.696 24.696z" fill="#a2ddfd"/><path d="m256 191.091c13.639 0 24.696-11.056 24.696-24.696v-42.774c-7.498-4.329-16.038-6.618-24.696-6.618-8.659 0-17.2 2.289-24.696 6.618v42.774c0 13.64 11.057 24.696 24.696 24.696z" fill="#7acdf9"/><path d="m24.686 225.23c-10.904.001-20.882-7.276-23.838-18.31-3.53-13.174 4.288-26.716 17.462-30.246l68.501-18.355-18.354-68.501c-3.53-13.174 4.288-26.716 17.463-30.246 13.171-3.533 26.716 4.287 30.246 17.463l24.746 92.355c3.53 13.174-4.288 26.716-17.463 30.246-98.184 26.001-92.96 25.594-98.763 25.594z" fill="#7acdf9"/><path d="m178.377 235.898c-4.19 0-8.436-1.067-12.325-3.313l-116.764-67.414c-11.812-6.819-15.859-21.923-9.039-33.735 6.819-11.813 21.923-15.859 33.735-9.039l116.764 67.414c11.812 6.819 15.859 21.923 9.039 33.735-4.574 7.922-12.875 12.352-21.41 12.352z" fill="#a2ddfd"/><path d="m166.052 232.585c3.889 2.246 8.135 3.313 12.325 3.313 8.534 0 16.836-4.43 21.41-12.352 6.82-11.812 2.773-26.916-9.039-33.735l-37.044-21.387c-15.233 8.795-24.696 25.184-24.696 42.774z" fill="#7acdf9"/><path d="m85.919 452.428c-13.174-3.53-20.993-17.071-17.463-30.246l18.354-68.501-68.5-18.355c-13.174-3.53-20.993-17.071-17.462-30.246 3.53-13.174 17.074-20.993 30.246-17.463l92.355 24.746c13.175 3.53 20.993 17.071 17.463 30.246l-24.746 92.355c-3.521 13.139-17.041 21.005-30.247 17.464z" fill="#7acdf9"/><path d="m61.659 392.916c-8.535 0-16.835-4.429-21.41-12.352-6.82-11.812-2.773-26.916 9.039-33.735l116.764-67.414c11.81-6.82 26.915-2.773 33.735 9.039s2.773 26.916-9.039 33.735l-116.764 67.414c-3.889 2.245-8.136 3.313-12.325 3.313z" fill="#a2ddfd"/><path d="m199.787 288.454c-6.82-11.813-21.925-15.859-33.735-9.039l-37.044 21.387c0 17.589 9.463 33.979 24.696 42.774l37.044-21.387c11.812-6.819 15.859-21.923 9.039-33.735z" fill="#7acdf9"/><path d="m256 391.742c6.321 0 12.64 2.411 17.463 7.233l67.608 67.608c9.644 9.644 9.644 25.281 0 34.925s-25.281 9.644-34.925 0l-50.146-50.145-50.146 50.146c-9.644 9.644-25.281 9.644-34.925 0s-9.644-25.281 0-34.925l67.608-67.608c4.822-4.823 11.142-7.234 17.463-7.234z" fill="#7acdf9"/><path d="m256 320.909c13.639 0 24.696 11.056 24.696 24.696v134.827c0 13.639-11.057 24.696-24.696 24.696s-24.696-11.056-24.696-24.696v-134.827c0-13.64 11.056-24.696 24.696-24.696z" fill="#a2ddfd"/><path d="m256 320.909c-13.639 0-24.696 11.056-24.696 24.696v42.774c7.498 4.329 16.038 6.618 24.696 6.618 8.659 0 17.2-2.289 24.696-6.618v-42.774c0-13.64-11.057-24.696-24.696-24.696z" fill="#7acdf9"/><path d="m511.152 305.08c3.53 13.174-4.288 26.716-17.462 30.246l-68.501 18.355 18.354 68.501c3.53 13.174-4.288 26.716-17.462 30.246-13.172 3.533-26.716-4.287-30.246-17.462l-24.746-92.355c-3.53-13.174 4.288-26.716 17.462-30.246l92.355-24.746c13.208-3.543 26.726 4.322 30.246 17.461z" fill="#7acdf9"/><path d="m333.623 276.102c4.19 0 8.436 1.067 12.325 3.313l116.764 67.414c11.812 6.819 15.859 21.923 9.039 33.735-6.819 11.813-21.923 15.859-33.735 9.039l-116.764-67.414c-11.812-6.819-15.859-21.923-9.039-33.735 4.574-7.922 12.875-12.352 21.41-12.352z" fill="#a2ddfd"/><path d="m345.948 279.415c-3.889-2.246-8.135-3.313-12.325-3.313-8.534 0-16.836 4.43-21.41 12.352-6.82 11.812-2.773 26.916 9.039 33.735l37.044 21.387c15.233-8.795 24.696-25.185 24.696-42.774z" fill="#7acdf9"/><path d="m426.081 59.572c13.174 3.53 20.993 17.071 17.462 30.246l-18.354 68.501 68.501 18.355c13.174 3.53 20.993 17.071 17.462 30.246-3.53 13.174-17.074 20.993-30.246 17.462l-92.355-24.746c-13.174-3.53-20.993-17.071-17.462-30.246l24.746-92.355c3.52-13.138 17.04-21.004 30.246-17.463z" fill="#7acdf9"/><path d="m450.341 119.084c8.535 0 16.836 4.429 21.41 12.352 6.82 11.812 2.773 26.916-9.039 33.735l-116.764 67.414c-11.81 6.82-26.915 2.773-33.735-9.039s-2.773-26.916 9.039-33.735l116.764-67.414c3.889-2.245 8.136-3.313 12.325-3.313z" fill="#a2ddfd"/><path d="m312.213 223.546c6.82 11.813 21.925 15.859 33.735 9.039l37.044-21.387c0-17.589-9.463-33.979-24.696-42.774l-37.044 21.387c-11.812 6.819-15.859 21.923-9.039 33.735z" fill="#7acdf9"/><path d="m256 370.301c-4.264 0-8.528-1.103-12.348-3.309l-77.6-44.803c-7.641-4.412-12.348-12.564-12.348-21.387v-89.604c0-8.823 4.707-16.975 12.348-21.387l77.6-44.803c7.64-4.412 17.056-4.412 24.696 0l77.6 44.803c7.641 4.412 12.348 12.564 12.348 21.387v89.604c0 8.823-4.707 16.975-12.348 21.387l-77.6 44.803c-3.82 2.206-8.084 3.309-12.348 3.309zm-52.904-83.757 52.904 30.545 52.904-30.544v-61.089l-52.904-30.544-52.904 30.544z" fill="#a2ddfd"/></g></svg>