<svg height="512" viewBox="0 0 64 64" width="512" xmlns="http://www.w3.org/2000/svg"><g id="Spider_web" data-name="Spider web"><path d="m8.084 41.663 6.916-2.794a35.827 35.827 0 0 0 -.039-13.961c.042-.028.083-.059.125-.088l-6.836-2.9-.25.139.385 1.274a30.011 30.011 0 0 1 0 17.334z" fill="#f1f2f2"/><path d="m24.909 14.959c.074.015.148.025.222.039l-2.794-6.914-.278-.084-.938 1.668a29.988 29.988 0 0 1 -11.453 11.453l-1.419.8 6.836 2.9a35.976 35.976 0 0 0 9.824-9.862z" fill="#e6e7e8"/><path d="m49.038 39.082c-.045.03-.088.063-.133.094l6.844 2.905.251-.14-.385-1.274a30.011 30.011 0 0 1 0-17.334l.3-1-6.915 2.798a35.834 35.834 0 0 0 .038 13.951z" fill="#f1f2f2"/><path d="m32 15.664a35.943 35.943 0 0 0 7.084-.7c.03.045.063.087.093.132l2.9-6.842-.136-.254-1.274.385a30.011 30.011 0 0 1 -17.334 0l-1-.3 2.798 6.915a36.019 36.019 0 0 0 6.869.664z" fill="#f1f2f2"/><path d="m14.962 39.082c.014-.071.024-.142.037-.213l-6.915 2.794-.084.278 1.538.855a30 30 0 0 1 11.624 11.6l.757 1.356 2.9-6.842a35.969 35.969 0 0 0 -9.857-9.828z" fill="#e6e7e8"/><path d="m32 48.336a35.943 35.943 0 0 0 -7.084.7c-.03-.045-.063-.087-.093-.132l-2.9 6.842.14.25 1.274-.385a30.011 30.011 0 0 1 17.334 0l1 .3-2.802-6.911a36.011 36.011 0 0 0 -6.869-.664z" fill="#f1f2f2"/><path d="m39.084 49.04c-.071-.014-.143-.024-.215-.038l2.794 6.914.278.084.9-1.606a30 30 0 0 1 11.621-11.594l1.287-.715-6.844-2.905a35.976 35.976 0 0 0 -9.821 9.86z" fill="#f1f2f2"/><path d="m49.038 24.918c-.014.071-.024.142-.037.213l6.915-2.794.084-.278-1.538-.859a30 30 0 0 1 -11.624-11.6l-.757-1.35-2.9 6.842a35.969 35.969 0 0 0 9.857 9.826z" fill="#e6e7e8"/><path d="m42.562 27.593c0 .048-.006.1-.011.144l6.449-2.606c.013-.071.023-.142.037-.213a35.969 35.969 0 0 1 -9.861-9.826l-2.718 6.4a41.629 41.629 0 0 0 6.104 6.101z" fill="#f1f2f2"/><path d="m32 21.664a42.1 42.1 0 0 0 4.4-.232c.018.022.037.042.055.064l2.718-6.4c-.03-.045-.063-.087-.093-.132a35.943 35.943 0 0 1 -7.084.7 36.019 36.019 0 0 1 -6.865-.664l2.6 6.445a42.243 42.243 0 0 0 4.269.219z" fill="#d1d3d4"/><path d="m27.587 21.431c.049 0 .1.007.148.012l-2.604-6.443c-.074-.014-.148-.024-.222-.039a35.976 35.976 0 0 1 -9.824 9.861l6.4 2.718a41.663 41.663 0 0 0 6.102-6.109z" fill="#f1f2f2"/><g fill="#d1d3d4"><path d="m21.437 27.583.052-.045-6.4-2.718c-.042.029-.083.06-.125.088a35.827 35.827 0 0 1 .036 13.961l6.45-2.606a41.556 41.556 0 0 0 -.013-8.68z"/><path d="m32 42.336a42.1 42.1 0 0 0 -4.4.232c-.018-.022-.037-.042-.055-.064l-2.718 6.4c.03.045.063.087.093.132a35.876 35.876 0 0 1 13.949-.036l-2.6-6.445a41.937 41.937 0 0 0 -4.269-.219z"/><path d="m42.562 36.407-.06.051 6.4 2.718c.045-.031.088-.064.133-.094a35.834 35.834 0 0 1 -.035-13.951l-6.45 2.606a41.529 41.529 0 0 0 .012 8.67z"/></g><path d="m36.4 42.568c-.046 0-.092-.006-.139-.011l2.608 6.443c.072.014.144.024.215.038a35.976 35.976 0 0 1 9.821-9.864l-6.4-2.718a41.635 41.635 0 0 0 -6.105 6.112z" fill="#e6e7e8"/><path d="m24.823 48.908 2.718-6.4a41.587 41.587 0 0 0 -6.1-6.1c.006-.048.007-.1.012-.144l-6.453 2.605c-.013.071-.023.142-.037.213a35.969 35.969 0 0 1 9.86 9.826z" fill="#f1f2f2"/><path d="m21.489 27.538-.052.045a41.556 41.556 0 0 1 .012 8.68l10.551-4.263z" fill="#f1f2f2"/><path d="m21.449 36.263c-.005.048-.006.1-.012.144a41.587 41.587 0 0 1 6.1 6.1l4.463-10.507z" fill="#d1d3d4"/><path d="m36.265 42.557c.047 0 .093.006.139.011a41.635 41.635 0 0 1 6.1-6.11l-10.504-4.458z" fill="#f1f2f2"/><path d="m36.459 21.5c-.018-.022-.037-.042-.055-.064a42.1 42.1 0 0 1 -4.4.232 42.243 42.243 0 0 1 -4.265-.221l4.261 10.553z" fill="#f1f2f2"/><path d="m32 32-4.265-10.557c-.049-.005-.1-.007-.148-.012a41.663 41.663 0 0 1 -6.1 6.107z" fill="#bcbec0"/><path d="m32 32 10.5 4.458.06-.051a41.529 41.529 0 0 1 -.011-8.67z" fill="#bcbec0"/><path d="m32 42.336a41.937 41.937 0 0 1 4.265.221l-4.265-10.557-4.459 10.5c.018.022.037.042.055.064a42.1 42.1 0 0 1 4.404-.228z" fill="#d1d3d4"/><path d="m32 32 10.551-4.263c0-.048.006-.1.011-.144a41.629 41.629 0 0 1 -6.1-6.1z" fill="#d1d3d4"/><path d="m60.926 43.192-4.019-1.706-.334-1.108a28.912 28.912 0 0 1 0-16.756l.162-.537 4.382-1.771a1 1 0 1 0 -.749-1.854l-4.045 1.634-1.376-.764a28.982 28.982 0 0 1 -11.236-11.212l-.518-.928 1.84-4.335a1 1 0 1 0 -1.841-.781l-1.706 4.019-1.108.334a28.9 28.9 0 0 1 -16.756 0l-.537-.162-1.771-4.382a1 1 0 1 0 -1.854.749l1.634 4.044-.844 1.5a29.006 29.006 0 0 1 -11.072 11.074l-.99.556-4.333-1.839a1 1 0 1 0 -.781 1.841l4.019 1.706.334 1.108a28.912 28.912 0 0 1 0 16.756l-.162.537-4.382 1.771a1 1 0 0 0 .375 1.927 1.011 1.011 0 0 0 .374-.073l4.045-1.634 1.376.764a28.982 28.982 0 0 1 11.236 11.212l.518.928-1.84 4.335a1 1 0 1 0 1.841.781l1.706-4.019 1.108-.334a28.9 28.9 0 0 1 16.756 0l.537.162 1.771 4.382a1 1 0 1 0 1.854-.749l-1.634-4.044.8-1.443a28.986 28.986 0 0 1 11.241-11.211l.86-.478 4.338 1.841a1 1 0 0 0 .781-1.841zm-6.394-2.714-4.575-1.942a34.676 34.676 0 0 1 -.068-12.685l4.511-1.822a30.885 30.885 0 0 0 .132 16.449zm-17.784-17.1a42.817 42.817 0 0 0 4.022 4l-6.906 2.79zm-4.725 6.013-2.756-6.821a43.058 43.058 0 0 0 5.657-.013zm-1.855.749-6.8-2.887a42.8 42.8 0 0 0 4.008-4.028zm-.781 1.841-6.814 2.749a42.626 42.626 0 0 0 -.013-5.651zm.749 1.855-2.884 6.794a42.817 42.817 0 0 0 -4.022-4zm1.841.781 2.756 6.821c-.912-.058-1.826-.1-2.733-.1-.971 0-1.948.045-2.924.111zm1.855-.749 6.794 2.884a42.827 42.827 0 0 0 -4 4.023zm.781-1.841 6.814-2.753a42.625 42.625 0 0 0 .013 5.651zm8.248-5.49a40.657 40.657 0 0 1 -5.24-5.215l1.791-4.222a36.7 36.7 0 0 0 7.756 7.7zm-7.056-6.057a41.1 41.1 0 0 1 -7.375.019l-1.7-4.214a37.194 37.194 0 0 0 10.882-.054zm-9.275.654a40.807 40.807 0 0 1 -5.22 5.246l-4.22-1.791a36.725 36.725 0 0 0 7.7-7.763zm-6.047 7.066a40.68 40.68 0 0 1 .019 7.37l-4.218 1.7a36.6 36.6 0 0 0 -.054-10.879zm.656 9.27a40.657 40.657 0 0 1 5.24 5.215l-1.791 4.215a36.7 36.7 0 0 0 -7.756-7.7zm7.061 6.054a41.1 41.1 0 0 1 7.375-.019l1.7 4.214a36.348 36.348 0 0 0 -10.882.054zm9.272-.661a40.8 40.8 0 0 1 5.214-5.243l4.214 1.791a36.7 36.7 0 0 0 -7.692 7.76zm6.05-7.061a40.668 40.668 0 0 1 -.019-7.369l4.218-1.7a36.565 36.565 0 0 0 .053 10.879zm10.419-13.745-4.594 1.856a34.784 34.784 0 0 1 -9.033-8.942l1.9-4.47a30.964 30.964 0 0 0 11.727 11.556zm-13.463-12.589-1.941 4.573a35.173 35.173 0 0 1 -12.687.068l-1.821-4.509a30.885 30.885 0 0 0 16.449-.132zm-18.485.69.06-.108 1.856 4.594a34.831 34.831 0 0 1 -8.944 9.039l-4.468-1.9a30.985 30.985 0 0 0 11.496-11.625zm-12.525 13.364 4.575 1.942a34.676 34.676 0 0 1 .068 12.685l-4.511 1.822a30.885 30.885 0 0 0 -.132-16.449zm.591 18.421 4.594-1.856a34.784 34.784 0 0 1 9.033 8.942l-1.9 4.47a30.964 30.964 0 0 0 -11.727-11.556zm21.941 11.389a31 31 0 0 0 -8.478 1.2l1.941-4.573a35.2 35.2 0 0 1 12.687-.067l1.821 4.508a30.944 30.944 0 0 0 -7.971-1.068zm9.965.574-.021.038-1.856-4.594a34.812 34.812 0 0 1 8.937-9.037l4.471 1.9a30.967 30.967 0 0 0 -11.531 11.693z" fill="#a7a9ac"/></g></svg>