<svg id="Capa_1" enable-background="new 0 0 512 512" height="512" viewBox="0 0 512 512" width="512" xmlns="http://www.w3.org/2000/svg"><circle cx="256" cy="207.903" fill="#5d5360" r="56.113"/><path d="m256 207.903c-7.207 0-14.579.683-21.911 2.029-.547.101-1.102.152-1.648.152-3.926 0-7.176-2.49-8.087-6.196-.891-3.629-1.344-7.361-1.344-11.093 0-9.647 2.846-18.952 8.227-26.91l7.747-11.453c-22.669 7.207-39.098 28.414-39.098 53.47 0 30.99 25.123 56.113 56.113 56.113 26.71 0 49.02-18.68 54.683-43.678-17.339-8.21-35.72-12.434-54.682-12.434z" fill="#4b3f4e"/><circle cx="256" cy="336.162" fill="#6f6571" r="104.21"/><path d="m284.056 412.315c-57.553 0-104.21-46.656-104.21-104.21 0-21.606 6.578-41.674 17.837-58.317-27.689 18.732-45.893 50.426-45.893 86.373 0 57.553 46.656 104.21 104.21 104.21 35.947 0 67.641-18.204 86.373-45.893-16.643 11.259-36.711 17.837-58.317 17.837z" fill="#5d5360"/><path d="m510.105 331.178-64.129-72.145c-1.122-1.262-2.636-2.108-4.299-2.402l-101.133-17.894 69.397-15.498c1.244-.278 2.396-.868 3.348-1.714l72.145-64.129c1.178-1.047 1.997-2.439 2.338-3.979l16.032-72.146c.898-4.043-1.651-8.05-5.694-8.948-4.044-.901-8.05 1.651-8.948 5.694l-15.506 69.778-68.88 61.227-65.809 14.697 50.594-50.594c1.224-1.224 1.987-2.834 2.16-4.557l8.016-80.162c.126-1.262-.07-2.535-.569-3.701l-24.049-56.113c-1.632-3.807-6.042-5.569-9.848-3.939-3.807 1.632-5.571 6.041-3.939 9.848l23.287 54.335-7.557 75.574-59.482 59.482c1.341-5.18 2.033-10.544 2.033-15.991 0-25.216-14.749-47.053-36.072-57.337v-14.808c0-4.142-3.358-7.5-7.5-7.5s-7.5 3.358-7.5 7.5v9.78c-4.056-.814-8.248-1.247-12.541-1.247s-8.484.433-12.541 1.247v-9.78c0-4.142-3.358-7.5-7.5-7.5s-7.5 3.358-7.5 7.5v14.808c-21.324 10.284-36.072 32.12-36.072 57.337 0 5.45.694 10.813 2.034 15.992l-59.483-59.483-7.557-75.574 23.287-54.335c1.632-3.807-.132-8.216-3.939-9.848s-8.216.132-9.848 3.939l-24.049 56.113c-.5 1.166-.695 2.439-.569 3.701l8.016 80.162c.172 1.723.936 3.333 2.16 4.557l50.594 50.594-65.809-14.697-68.88-61.227-15.507-69.777c-.898-4.043-4.903-6.596-8.948-5.694-4.043.898-6.593 4.905-5.694 8.948l16.032 72.146c.342 1.539 1.16 2.931 2.338 3.979l72.145 64.129c.953.847 2.104 1.437 3.348 1.714l69.397 15.498-101.133 17.893c-1.663.294-3.177 1.141-4.299 2.402l-64.128 72.145c-1.221 1.374-1.895 3.146-1.895 4.983v72.146c0 4.142 3.358 7.5 7.5 7.5s7.5-3.358 7.5-7.5v-69.294l60.502-68.065 95.386-16.876-103.694 76.042c-1.927 1.413-3.065 3.659-3.065 6.048v80.162c0 1.165.271 2.313.792 3.354l32.064 64.129c1.314 2.628 3.962 4.148 6.714 4.147 1.127 0 2.271-.255 3.348-.793 3.705-1.852 5.207-6.357 3.354-10.062l-31.272-62.545v-74.591l79.313-58.162c-9.007 16.1-14.151 34.64-14.151 54.362 0 61.597 50.113 111.71 111.709 111.71s111.709-50.113 111.709-111.71c0-19.497-5.002-38.036-13.962-54.224l79.124 58.024v74.591l-31.272 62.545c-1.853 3.705-.351 8.21 3.354 10.062 1.077.539 2.221.793 3.348.793 2.751 0 5.4-1.52 6.714-4.147l32.064-64.129c.521-1.042.792-2.189.792-3.354v-80.162c0-2.389-1.138-4.635-3.065-6.048l-103.695-76.042 95.386 16.876 60.503 68.065v69.294c0 4.142 3.358 7.5 7.5 7.5s7.5-3.358 7.5-7.5v-72.146c0-1.837-.674-3.609-1.895-4.983zm-254.105 101.693c-53.326 0-96.709-43.384-96.709-96.71s43.384-96.709 96.715-96.709c4.142 0 7.497-3.358 7.497-7.5s-3.36-7.5-7.502-7.5c-14.801 0-28.935 2.9-41.874 8.151-4.414-7.462-6.739-15.934-6.739-24.7 0-26.805 21.808-48.613 48.613-48.613s48.613 21.808 48.613 48.613c0 8.752-2.322 17.221-6.728 24.678-2.461-.992-4.962-1.916-7.518-2.742-3.942-1.276-8.169.89-9.442 4.832-1.273 3.941.89 8.169 4.832 9.442 40.047 12.936 66.954 49.927 66.954 92.048-.003 53.327-43.386 96.71-96.712 96.71z"/></svg>