<?xml version="1.0" encoding="iso-8859-1"?>
<!-- Generator: Adobe Illustrator 19.0.0, SVG Export Plug-In . SVG Version: 6.00 Build 0)  -->
<svg version="1.1" id="Capa_1" xmlns="http://www.w3.org/2000/svg" xmlns:xlink="http://www.w3.org/1999/xlink" x="0px" y="0px"
	 viewBox="0 0 512 512" style="enable-background:new 0 0 512 512;" xml:space="preserve">
<linearGradient id="SVGID_1_" gradientUnits="userSpaceOnUse" x1="59.3726" y1="303.403" x2="59.3726" y2="277.293" gradientTransform="matrix(1.0039 0 0 -1.0039 0.1922 516.5608)">
	<stop  offset="0" style="stop-color:#FFCF42"/>
	<stop  offset="1" style="stop-color:#FFB500"/>
</linearGradient>
<path style="fill:url(#SVGID_1_);" d="M82.387,239.323H48.114c-8.813,0-15.958-7.145-15.958-15.958l0,0
	c0-8.813,7.145-15.958,15.958-15.958h12.463c14.836,0,26.863,12.027,26.863,26.863l0,0C87.441,237.06,85.178,239.323,82.387,239.323
	z"/>
<linearGradient id="SVGID_2_" gradientUnits="userSpaceOnUse" x1="450.2436" y1="303.403" x2="450.2436" y2="277.293" gradientTransform="matrix(1.0039 0 0 -1.0039 0.1922 516.5608)">
	<stop  offset="0" style="stop-color:#FFCF42"/>
	<stop  offset="1" style="stop-color:#FFB500"/>
</linearGradient>
<path style="fill:url(#SVGID_2_);" d="M429.613,239.323h34.272c8.813,0,15.958-7.145,15.958-15.958l0,0
	c0-8.813-7.145-15.958-15.958-15.958h-12.463c-14.836,0-26.863,12.027-26.863,26.863l0,0
	C424.559,237.06,426.822,239.323,429.613,239.323z"/>
<linearGradient id="SVGID_3_" gradientUnits="userSpaceOnUse" x1="440.1006" y1="270.395" x2="393.2506" y2="317.255" gradientTransform="matrix(1.0039 0 0 -1.0039 0.1922 516.5608)">
	<stop  offset="0" style="stop-color:#FFB500;stop-opacity:0"/>
	<stop  offset="1" style="stop-color:#FF7000"/>
</linearGradient>
<path style="fill:url(#SVGID_3_);" d="M427.572,221.942c-1.913,3.694-3.012,7.88-3.012,12.327c0,2.791,2.263,5.054,5.054,5.054
	h15.34L427.572,221.942z"/>
<linearGradient id="SVGID_4_" gradientUnits="userSpaceOnUse" x1="254.8086" y1="423.053" x2="254.8086" y2="477.463" gradientTransform="matrix(1.0039 0 0 -1.0039 0.1922 516.5608)">
	<stop  offset="0" style="stop-color:#E7F1FD"/>
	<stop  offset="1" style="stop-color:#B2C7D8"/>
</linearGradient>
<path style="fill:url(#SVGID_4_);" d="M291.765,68.297h-71.529c-6.913,0-12.896,4.807-14.386,11.557l-7.175,32.507h114.652
	l-7.175-32.507C304.661,73.104,298.678,68.297,291.765,68.297z"/>
<linearGradient id="SVGID_5_" gradientUnits="userSpaceOnUse" x1="254.8091" y1="421.693" x2="254.8091" y2="403.823" gradientTransform="matrix(1.0039 0 0 -1.0039 0.1922 516.5608)">
	<stop  offset="0" style="stop-color:#E7F1FD"/>
	<stop  offset="1" style="stop-color:#B2C7D8"/>
</linearGradient>
<path style="fill:url(#SVGID_5_);" d="M288.199,73.508h-64.398c-6.224,0-11.61,4.328-12.952,10.405l-6.459,29.265h103.22
	l-6.459-29.265C299.809,77.836,294.422,73.508,288.199,73.508z"/>
<linearGradient id="SVGID_6_" gradientUnits="userSpaceOnUse" x1="215.7246" y1="423.0105" x2="233.0396" y2="423.0105" gradientTransform="matrix(1.0039 0 0 -1.0039 0.1922 516.5608)">
	<stop  offset="0" style="stop-color:#FF4C4A"/>
	<stop  offset="1" style="stop-color:#FF001C"/>
</linearGradient>
<path style="fill:url(#SVGID_6_);" d="M216.763,80.528c0-0.459,0.107-0.863,0.322-1.213c0.215-0.35,0.525-0.525,0.932-0.525h14.875
	c0.406,0,0.717,0.17,0.932,0.507c0.215,0.338,0.322,0.737,0.322,1.195c0,0.508-0.113,0.936-0.34,1.286
	c-0.228,0.35-0.532,0.525-0.915,0.525h-5.521v21.438c0,0.381-0.192,0.686-0.573,0.913c-0.382,0.227-0.824,0.34-1.326,0.34
	c-0.526,0-0.974-0.113-1.344-0.34c-0.37-0.226-0.555-0.53-0.555-0.913V82.301h-5.556c-0.382,0-0.688-0.175-0.915-0.525
	C216.876,81.427,216.763,81.01,216.763,80.528z"/>
<g>
	
		<linearGradient id="SVGID_7_" gradientUnits="userSpaceOnUse" x1="216.1902" y1="420.3546" x2="0.2702" y2="403.1646" gradientTransform="matrix(1.0039 0 0 -1.0039 0.1922 516.5608)">
		<stop  offset="0" style="stop-color:#FF4C4A"/>
		<stop  offset="1" style="stop-color:#FF001C"/>
	</linearGradient>
	<path style="fill:url(#SVGID_7_);" d="M238.858,103.417c0-0.143,0.012-0.25,0.036-0.322l7.118-23.232
		c0.304-0.859,1.154-1.289,2.548-1.289c1.42,0,2.282,0.401,2.586,1.202l7.098,23.228c0.047,0.151,0.072,0.263,0.072,0.337
		c0,0.451-0.279,0.838-0.835,1.164c-0.557,0.325-1.147,0.488-1.772,0.488c-0.754,0-1.223-0.26-1.404-0.78l-1.484-5.134h-8.811
		l-1.467,5.121c-0.167,0.529-0.608,0.793-1.323,0.793c-0.572,0-1.109-0.155-1.609-0.465
		C239.108,104.216,238.858,103.847,238.858,103.417z M244.871,96.066h7.115l-3.593-12.302L244.871,96.066z"/>
	
		<linearGradient id="SVGID_8_" gradientUnits="userSpaceOnUse" x1="216.3349" y1="418.5368" x2="0.4149" y2="401.3468" gradientTransform="matrix(1.0039 0 0 -1.0039 0.1922 516.5608)">
		<stop  offset="0" style="stop-color:#FF4C4A"/>
		<stop  offset="1" style="stop-color:#FF001C"/>
	</linearGradient>
	<path style="fill:url(#SVGID_8_);" d="M264.874,103.235c0-0.215,0.071-0.466,0.215-0.753l6.201-10.61l-6.022-10.538
		c-0.192-0.334-0.287-0.646-0.287-0.932c0-0.478,0.251-0.883,0.753-1.219c0.502-0.334,1.051-0.502,1.648-0.502
		c0.573,0,1.051,0.358,1.434,1.075l4.946,9.176l5.019-9.176c0.334-0.717,0.812-1.075,1.434-1.075c0.573,0,1.111,0.168,1.613,0.502
		c0.502,0.335,0.753,0.741,0.753,1.219c0,0.287-0.095,0.597-0.287,0.932l-6.023,10.538l6.201,10.61
		c0.167,0.334,0.251,0.586,0.251,0.753c0,0.502-0.269,0.939-0.806,1.308c-0.538,0.37-1.093,0.555-1.667,0.555
		c-0.502,0-0.897-0.287-1.183-0.86l-5.305-9.535l-5.233,9.535c-0.334,0.573-0.741,0.86-1.219,0.86c-0.55,0-1.093-0.185-1.631-0.555
		C265.143,104.173,264.874,103.737,264.874,103.235z"/>
	
		<linearGradient id="SVGID_9_" gradientUnits="userSpaceOnUse" x1="216.4575" y1="416.9979" x2="0.5374" y2="399.8079" gradientTransform="matrix(1.0039 0 0 -1.0039 0.1922 516.5608)">
		<stop  offset="0" style="stop-color:#FF4C4A"/>
		<stop  offset="1" style="stop-color:#FF001C"/>
	</linearGradient>
	<path style="fill:url(#SVGID_9_);" d="M291.437,103.737v-23.73c0-0.406,0.185-0.711,0.555-0.914
		c0.37-0.203,0.818-0.305,1.344-0.305c0.525,0,0.974,0.102,1.344,0.305c0.37,0.203,0.555,0.508,0.555,0.914v23.73
		c0,0.382-0.186,0.688-0.555,0.915c-0.37,0.228-0.819,0.34-1.344,0.34c-0.502,0-0.945-0.113-1.326-0.34
		C291.629,104.424,291.437,104.12,291.437,103.737z"/>
</g>
<linearGradient id="SVGID_10_" gradientUnits="userSpaceOnUse" x1="259.6989" y1="329.0064" x2="348.8289" y2="302.8964" gradientTransform="matrix(1.0039 0 0 -1.0039 0.1922 516.5608)">
	<stop  offset="0" style="stop-color:#FFCF42"/>
	<stop  offset="1" style="stop-color:#FFB500"/>
</linearGradient>
<path style="fill:url(#SVGID_10_);" d="M366.096,108.237H145.904c-21.281,0-39.7,14.797-44.287,35.578L79.531,243.883h352.939
	l-22.086-100.068C405.796,123.034,387.377,108.237,366.096,108.237z"/>
<linearGradient id="SVGID_11_" gradientUnits="userSpaceOnUse" x1="254.8086" y1="316.7729" x2="254.8086" y2="266.353" gradientTransform="matrix(1.0039 0 0 -1.0039 0.1922 516.5608)">
	<stop  offset="0" style="stop-color:#FFB500;stop-opacity:0"/>
	<stop  offset="1" style="stop-color:#FF7000"/>
</linearGradient>
<polygon style="fill:url(#SVGID_11_);" points="94.981,241.709 417.019,241.709 403.361,179.824 108.639,179.824 "/>
<linearGradient id="SVGID_12_" gradientUnits="userSpaceOnUse" x1="278.22" y1="376.8932" x2="270.41" y2="434.7132" gradientTransform="matrix(1.0039 0 0 -1.0039 0.1922 516.5608)">
	<stop  offset="0" style="stop-color:#D53932;stop-opacity:0"/>
	<stop  offset="1" style="stop-color:#7E1416"/>
</linearGradient>
<polygon style="fill:url(#SVGID_12_);" points="357.407,153.228 312.415,108.236 199.585,108.236 244.576,153.228 "/>
<linearGradient id="SVGID_13_" gradientUnits="userSpaceOnUse" x1="254.8086" y1="426.603" x2="254.8086" y2="291.313" gradientTransform="matrix(1.0039 0 0 -1.0039 0.1922 516.5608)">
	<stop  offset="0" style="stop-color:#456A97"/>
	<stop  offset="1" style="stop-color:#1A338C"/>
</linearGradient>
<path style="fill:url(#SVGID_13_);" d="M355.251,133.881H156.749c-13.084,0-24.396,9.125-27.166,21.912l-20.114,92.864H402.53
	l-20.114-92.864C379.647,143.006,368.335,133.881,355.251,133.881z"/>
<linearGradient id="SVGID_14_" gradientUnits="userSpaceOnUse" x1="254.8086" y1="294.463" x2="254.8086" y2="271.923" gradientTransform="matrix(1.0039 0 0 -1.0039 0.1922 516.5608)">
	<stop  offset="0" style="stop-color:#FFCF42"/>
	<stop  offset="1" style="stop-color:#FFB500"/>
</linearGradient>
<path style="fill:url(#SVGID_14_);" d="M385.208,249.212H126.792l0,0c0-17.208,13.95-31.159,31.159-31.159h196.097
	C371.257,218.054,385.208,232.004,385.208,249.212L385.208,249.212z"/>
<linearGradient id="SVGID_15_" gradientUnits="userSpaceOnUse" x1="220.3814" y1="205.1073" x2="474.5614" y2="178.9973" gradientTransform="matrix(1.0039 0 0 -1.0039 0.1922 516.5608)">
	<stop  offset="0" style="stop-color:#FFCF42"/>
	<stop  offset="1" style="stop-color:#FFB500"/>
</linearGradient>
<path style="fill:url(#SVGID_15_);" d="M408.627,236.146H103.373c-46.741,0-84.631,37.891-84.631,84.631v63.234h474.516v-63.234
	C493.258,274.036,455.367,236.146,408.627,236.146z"/>
<linearGradient id="SVGID_16_" gradientUnits="userSpaceOnUse" x1="254.8086" y1="199.223" x2="254.8086" y2="149.073" gradientTransform="matrix(1.0039 0 0 -1.0039 0.1922 516.5608)">
	<stop  offset="0" style="stop-color:#FFB500;stop-opacity:0"/>
	<stop  offset="1" style="stop-color:#FF7000"/>
</linearGradient>
<path style="fill:url(#SVGID_16_);" d="M18.742,320.777v63.234h474.516v-63.234c0-6.643-0.79-13.096-2.237-19.298H20.979
	C19.531,307.681,18.742,314.135,18.742,320.777z"/>
<linearGradient id="SVGID_17_" gradientUnits="userSpaceOnUse" x1="104.7326" y1="134.913" x2="104.7326" y2="62.013" gradientTransform="matrix(1.0039 0 0 -1.0039 0.1922 516.5608)">
	<stop  offset="0" style="stop-color:#456A97"/>
	<stop  offset="1" style="stop-color:#1A338C"/>
</linearGradient>
<path style="fill:url(#SVGID_17_);" d="M135.098,443.703H75.572c-12.728,0-23.045-10.317-23.045-23.045v-48.761h105.617v48.761
	C158.144,433.386,147.825,443.703,135.098,443.703z"/>
<linearGradient id="SVGID_18_" gradientUnits="userSpaceOnUse" x1="104.7321" y1="86.0929" x2="104.7321" y2="123.183" gradientTransform="matrix(1.0039 0 0 -1.0039 0.1922 516.5608)">
	<stop  offset="0" style="stop-color:#456A97;stop-opacity:0"/>
	<stop  offset="1" style="stop-color:#1A338C"/>
</linearGradient>
<path style="fill:url(#SVGID_18_);" d="M135.098,443.703c12.728,0,23.045-10.318,23.045-23.045v-48.761H52.527v30.868l40.939,40.939
	L135.098,443.703L135.098,443.703z"/>
<linearGradient id="SVGID_19_" gradientUnits="userSpaceOnUse" x1="153.2458" y1="98.9844" x2="65.1438" y2="136.0745" gradientTransform="matrix(1.0039 0 0 -1.0039 0.1922 516.5608)">
	<stop  offset="0" style="stop-color:#456A97;stop-opacity:0"/>
	<stop  offset="1" style="stop-color:#1A338C"/>
</linearGradient>
<path style="fill:url(#SVGID_19_);" d="M105.335,443.703h29.762c12.728,0,23.045-10.318,23.045-23.045v-48.761h-52.808v71.806
	H105.335z"/>
<linearGradient id="SVGID_20_" gradientUnits="userSpaceOnUse" x1="404.8856" y1="134.913" x2="404.8856" y2="62.013" gradientTransform="matrix(1.0039 0 0 -1.0039 0.1922 516.5608)">
	<stop  offset="0" style="stop-color:#456A97"/>
	<stop  offset="1" style="stop-color:#1A338C"/>
</linearGradient>
<path style="fill:url(#SVGID_20_);" d="M436.428,443.703h-59.526c-12.728,0-23.045-10.317-23.045-23.045v-48.761h105.617v48.761
	C459.473,433.386,449.156,443.703,436.428,443.703z"/>
<linearGradient id="SVGID_21_" gradientUnits="userSpaceOnUse" x1="404.8846" y1="86.0929" x2="404.8846" y2="123.183" gradientTransform="matrix(1.0039 0 0 -1.0039 0.1922 516.5608)">
	<stop  offset="0" style="stop-color:#456A97;stop-opacity:0"/>
	<stop  offset="1" style="stop-color:#1A338C"/>
</linearGradient>
<path style="fill:url(#SVGID_21_);" d="M436.428,443.703c12.728,0,23.045-10.318,23.045-23.045v-48.761H353.856v30.868
	l40.939,40.939L436.428,443.703L436.428,443.703z"/>
<linearGradient id="SVGID_22_" gradientUnits="userSpaceOnUse" x1="453.4046" y1="98.9828" x2="365.2946" y2="136.0728" gradientTransform="matrix(1.0039 0 0 -1.0039 0.1922 516.5608)">
	<stop  offset="0" style="stop-color:#456A97;stop-opacity:0"/>
	<stop  offset="1" style="stop-color:#1A338C"/>
</linearGradient>
<path style="fill:url(#SVGID_22_);" d="M406.666,443.703h29.762c12.728,0,23.045-10.318,23.045-23.045v-48.761h-52.808v71.806
	H406.666z"/>
<linearGradient id="SVGID_23_" gradientUnits="userSpaceOnUse" x1="286.2784" y1="100.7429" x2="252.4884" y2="170.5829" gradientTransform="matrix(1.0039 0 0 -1.0039 0.1922 516.5608)">
	<stop  offset="0" style="stop-color:#6F2E27;stop-opacity:0"/>
	<stop  offset="1" style="stop-color:#3F2925"/>
</linearGradient>
<path style="fill:url(#SVGID_23_);" d="M308.098,349.009c-2.137-2.577-5.364-4.219-8.973-4.219h-86.249
	c-6.436,0-11.655,5.218-11.655,11.655v24.343c0,1.12,0.175,2.198,0.471,3.224h141.407L308.098,349.009z"/>
<linearGradient id="SVGID_24_" gradientUnits="userSpaceOnUse" x1="254.8086" y1="150.583" x2="254.8086" y2="107.053" gradientTransform="matrix(1.0039 0 0 -1.0039 0.1922 516.5608)">
	<stop  offset="0" style="stop-color:#E7F1FD"/>
	<stop  offset="1" style="stop-color:#B2C7D8"/>
</linearGradient>
<path style="fill:url(#SVGID_24_);" d="M493.427,402.764H18.573C8.315,402.764,0,394.449,0,384.192v-5.731
	c0-10.257,8.315-18.573,18.573-18.573h474.855c10.257,0,18.573,8.315,18.573,18.573v5.731
	C512,394.45,503.685,402.764,493.427,402.764z"/>
<radialGradient id="SVGID_25_" cx="96.8686" cy="219.193" r="70.905" gradientTransform="matrix(1.0039 0 0 -1.0039 0.1922 516.5608)" gradientUnits="userSpaceOnUse">
	<stop  offset="0" style="stop-color:#FFFFFF"/>
	<stop  offset="1" style="stop-color:#FFFFFF;stop-opacity:0"/>
</radialGradient>
<circle style="fill:url(#SVGID_25_);" cx="97.27" cy="296.508" r="75.384"/>
<radialGradient id="SVGID_26_" cx="84.9986" cy="239.083" r="75.27" gradientTransform="matrix(1.0039 0 0 -1.0039 0.1922 516.5608)" gradientUnits="userSpaceOnUse">
	<stop  offset="0" style="stop-color:#FFF2E8"/>
	<stop  offset="0.459" style="stop-color:#FEF0E6"/>
	<stop  offset="0.625" style="stop-color:#FCEBDF"/>
	<stop  offset="0.743" style="stop-color:#F7E1D4"/>
	<stop  offset="0.838" style="stop-color:#F1D3C3"/>
	<stop  offset="0.919" style="stop-color:#E9C1AD"/>
	<stop  offset="0.99" style="stop-color:#DFAC92"/>
	<stop  offset="1" style="stop-color:#DDA88E"/>
</radialGradient>
<circle style="fill:url(#SVGID_26_);" cx="97.27" cy="296.508" r="46.773"/>
<radialGradient id="SVGID_27_" cx="88.4286" cy="233.253" r="53.23" gradientTransform="matrix(1.0039 0 0 -1.0039 0.1922 516.5608)" gradientUnits="userSpaceOnUse">
	<stop  offset="0" style="stop-color:#FFF2E8"/>
	<stop  offset="0.459" style="stop-color:#FEF0E6"/>
	<stop  offset="0.625" style="stop-color:#FCEBDF"/>
	<stop  offset="0.743" style="stop-color:#F7E1D4"/>
	<stop  offset="0.838" style="stop-color:#F1D3C3"/>
	<stop  offset="0.919" style="stop-color:#E9C1AD"/>
	<stop  offset="0.99" style="stop-color:#DFAC92"/>
	<stop  offset="1" style="stop-color:#DDA88E"/>
</radialGradient>
<circle style="fill:url(#SVGID_27_);" cx="97.27" cy="296.508" r="33.073"/>
<radialGradient id="SVGID_28_" cx="413.0886" cy="219.193" r="70.905" gradientTransform="matrix(1.0039 0 0 -1.0039 0.1922 516.5608)" gradientUnits="userSpaceOnUse">
	<stop  offset="0" style="stop-color:#FFFFFF"/>
	<stop  offset="1" style="stop-color:#FFFFFF;stop-opacity:0"/>
</radialGradient>
<circle style="fill:url(#SVGID_28_);" cx="414.73" cy="296.508" r="75.384"/>
<radialGradient id="SVGID_29_" cx="401.2186" cy="239.083" r="75.27" gradientTransform="matrix(1.0039 0 0 -1.0039 0.1922 516.5608)" gradientUnits="userSpaceOnUse">
	<stop  offset="0" style="stop-color:#FFF2E8"/>
	<stop  offset="0.459" style="stop-color:#FEF0E6"/>
	<stop  offset="0.625" style="stop-color:#FCEBDF"/>
	<stop  offset="0.743" style="stop-color:#F7E1D4"/>
	<stop  offset="0.838" style="stop-color:#F1D3C3"/>
	<stop  offset="0.919" style="stop-color:#E9C1AD"/>
	<stop  offset="0.99" style="stop-color:#DFAC92"/>
	<stop  offset="1" style="stop-color:#DDA88E"/>
</radialGradient>
<circle style="fill:url(#SVGID_29_);" cx="414.73" cy="296.508" r="46.773"/>
<radialGradient id="SVGID_30_" cx="404.6486" cy="233.253" r="53.23" gradientTransform="matrix(1.0039 0 0 -1.0039 0.1922 516.5608)" gradientUnits="userSpaceOnUse">
	<stop  offset="0" style="stop-color:#FFF2E8"/>
	<stop  offset="0.459" style="stop-color:#FEF0E6"/>
	<stop  offset="0.625" style="stop-color:#FCEBDF"/>
	<stop  offset="0.743" style="stop-color:#F7E1D4"/>
	<stop  offset="0.838" style="stop-color:#F1D3C3"/>
	<stop  offset="0.919" style="stop-color:#E9C1AD"/>
	<stop  offset="0.99" style="stop-color:#DFAC92"/>
	<stop  offset="1" style="stop-color:#DDA88E"/>
</radialGradient>
<circle style="fill:url(#SVGID_30_);" cx="414.73" cy="296.508" r="33.073"/>
<g>
	
		<linearGradient id="SVGID_31_" gradientUnits="userSpaceOnUse" x1="171.7896" y1="251.2859" x2="337.8286" y2="251.2859" gradientTransform="matrix(1.0039 0 0 -1.0039 0.1922 516.5608)">
		<stop  offset="0" style="stop-color:#FF4C4A"/>
		<stop  offset="1" style="stop-color:#FF001C"/>
	</linearGradient>
	<path style="fill:url(#SVGID_31_);" d="M336.602,270.32H175.398c-1.515,0-2.743-1.228-2.743-2.743v-6.576
		c0-1.515,1.228-2.743,2.743-2.743h161.205c1.515,0,2.743,1.228,2.743,2.743v6.576C339.345,269.092,338.117,270.32,336.602,270.32z"
		/>
	
		<linearGradient id="SVGID_32_" gradientUnits="userSpaceOnUse" x1="171.7896" y1="229.89" x2="337.8286" y2="229.89" gradientTransform="matrix(1.0039 0 0 -1.0039 0.1922 516.5608)">
		<stop  offset="0" style="stop-color:#FF4C4A"/>
		<stop  offset="1" style="stop-color:#FF001C"/>
	</linearGradient>
	<path style="fill:url(#SVGID_32_);" d="M336.602,291.8H175.398c-1.515,0-2.743-1.228-2.743-2.743v-6.576
		c0-1.515,1.228-2.743,2.743-2.743h161.205c1.515,0,2.743,1.228,2.743,2.743v6.576C339.345,290.572,338.117,291.8,336.602,291.8z"/>
	
		<linearGradient id="SVGID_33_" gradientUnits="userSpaceOnUse" x1="171.7896" y1="208.494" x2="337.8286" y2="208.494" gradientTransform="matrix(1.0039 0 0 -1.0039 0.1922 516.5608)">
		<stop  offset="0" style="stop-color:#FF4C4A"/>
		<stop  offset="1" style="stop-color:#FF001C"/>
	</linearGradient>
	<path style="fill:url(#SVGID_33_);" d="M336.602,313.28H175.398c-1.515,0-2.743-1.228-2.743-2.743v-6.576
		c0-1.515,1.228-2.743,2.743-2.743h161.205c1.515,0,2.743,1.228,2.743,2.743v6.576C339.345,312.052,338.117,313.28,336.602,313.28z"
		/>
	
		<linearGradient id="SVGID_34_" gradientUnits="userSpaceOnUse" x1="171.7896" y1="187.098" x2="337.8286" y2="187.098" gradientTransform="matrix(1.0039 0 0 -1.0039 0.1922 516.5608)">
		<stop  offset="0" style="stop-color:#FF4C4A"/>
		<stop  offset="1" style="stop-color:#FF001C"/>
	</linearGradient>
	<path style="fill:url(#SVGID_34_);" d="M336.602,334.76H175.398c-1.515,0-2.743-1.228-2.743-2.743v-6.576
		c0-1.515,1.228-2.743,2.743-2.743h161.205c1.515,0,2.743,1.228,2.743,2.743v6.576C339.345,333.532,338.117,334.76,336.602,334.76z"
		/>
</g>
<linearGradient id="SVGID_35_" gradientUnits="userSpaceOnUse" x1="319.9479" y1="82.1923" x2="240.1379" y2="162.0023" gradientTransform="matrix(1.0039 0 0 -1.0039 0.1922 516.5608)">
	<stop  offset="0" style="stop-color:#B2C7D8;stop-opacity:0"/>
	<stop  offset="1" style="stop-color:#879FAF"/>
</linearGradient>
<path style="fill:url(#SVGID_35_);" d="M318.976,359.888H201.221v20.9c0,3.61,1.641,6.836,4.219,8.973l13.004,13.004h143.409
	L318.976,359.888z"/>
<linearGradient id="SVGID_36_" gradientUnits="userSpaceOnUse" x1="254.8086" y1="163.683" x2="254.8086" y2="119.443" gradientTransform="matrix(1.0039 0 0 -1.0039 0.1922 516.5608)">
	<stop  offset="0" style="stop-color:#FFF2E8"/>
	<stop  offset="1" style="stop-color:#E7D2B9"/>
</linearGradient>
<path style="fill:url(#SVGID_36_);" d="M299.124,392.442h-86.249c-6.437,0-11.655-5.218-11.655-11.655v-24.343
	c0-6.437,5.218-11.655,11.655-11.655h86.249c6.437,0,11.655,5.218,11.655,11.655v24.343
	C310.779,387.225,305.562,392.442,299.124,392.442z"/>
<g>
</g>
<g>
</g>
<g>
</g>
<g>
</g>
<g>
</g>
<g>
</g>
<g>
</g>
<g>
</g>
<g>
</g>
<g>
</g>
<g>
</g>
<g>
</g>
<g>
</g>
<g>
</g>
<g>
</g>
</svg>
