<svg viewBox="0 -97 512.00002 512" xmlns="http://www.w3.org/2000/svg"><path d="m347.214844 252.578125 82.023437-29.707031v94.253906h-82.023437" fill="#57ad7b"/><path d="m284.304688 239.652344h86.589843v77.472656h-86.589843zm0 0" fill="#57ad7b"/><path d="m317.828125 272.191406h53.066406v44.933594h-53.066406zm0 0" fill="#6dcc98"/><path d="m118.941406 252.578125 82.019532-31.808594v96.355469h-82.019532" fill="#57ad7b"/><path d="m56.03125 239.652344h86.585938v77.472656h-86.585938zm0 0" fill="#57ad7b"/><path d="m425.726562 205.785156c0-113.652344-92.128906-205.78124975-205.78125-205.78124975-113.648437 0-205.777343 92.12890575-205.777343 205.78124975l320.554687 21.285156zm0 0" fill="#b75129"/><path d="m89.550781 272.191406h53.066407v44.933594h-53.066407zm0 0" fill="#6dcc98"/><path d="m425.726562 205.78125h-402.332031c-6.464843 0-12.3125 2.613281-16.539062 6.855469-4.242188 4.230469-6.855469 10.074219-6.855469 16.542969 0 12.917968 10.476562 23.394531 23.394531 23.394531h393.105469" fill="#edd464"/><path d="m83.222656 252.574219h-59.828125c-12.917969 0-23.394531-10.476563-23.394531-23.394531 0-6.46875 2.613281-12.3125 6.855469-16.542969 4.226562-4.242188 10.074219-6.855469 16.539062-6.855469h59.828125c-6.464844 0-12.3125 2.613281-16.542968 6.855469-4.238282 4.230469-6.851563 10.074219-6.851563 16.542969 0 12.917968 10.472656 23.394531 23.394531 23.394531zm0 0" fill="#d8951e"/><path d="m219.949219 0c-64.917969 0-117.53125 92.132812-117.53125 205.785156h-88.25c0-113.652344 92.132812-205.785156 205.78125-205.785156zm0 0" fill="#a03e20"/><path d="m512 141.296875v59.625c0 1.199219-.042969 2.394531-.125 3.570313-1.828125 26.859374-24.203125 48.082031-51.535156 48.082031h-72.128906v-111.277344c0-34.1875 27.710937-61.894531 61.894531-61.894531 34.183593 0 61.894531 27.707031 61.894531 61.894531zm0 0" fill="#6dcc98"/><path d="m512 188.746094v12.175781c0 1.199219-.042969 2.394531-.125 3.570313h-45.007812c-4.34375 0-7.871094-3.527344-7.871094-7.871094 0-4.347656 3.527344-7.875 7.871094-7.875zm0 0" fill="#57ad7b"/><g fill="#353c44"><path d="m478.417969 162.507812c-4.351563 0-7.875-3.523437-7.875-7.871093v-23.371094c0-4.347656 3.523437-7.871094 7.875-7.871094 4.347656 0 7.871093 3.523438 7.871093 7.871094v23.371094c0 4.347656-3.523437 7.871093-7.871093 7.871093zm0 0"/><path d="m450.078125 162.507812c-4.347656 0-7.875-3.523437-7.875-7.871093v-23.371094c0-4.347656 3.527344-7.871094 7.875-7.871094s7.871094 3.523438 7.871094 7.871094v23.371094c0 4.347656-3.523438 7.871093-7.871094 7.871093zm0 0"/></g></svg>